<svg width="205" height="93" viewBox="0 0 205 93" fill="none" xmlns="http://www.w3.org/2000/svg">
<path d="M24.8921 55.3002L20.2799 50.556C20.2799 50.556 22.0067 52.9818 22.3922 54.3429C22.9683 56.3767 21.4596 58.0531 20.8257 58.6693C20.1918 59.2855 19.1553 60.4099 18.7262 61.2944C18.297 62.1788 18.6541 63.5838 19.1242 64.5286C19.5942 65.4733 21.9917 68.5159 21.9917 68.5159C21.9917 68.5159 25.7176 64.5822 26.531 63.6531C27.3445 62.724 28.2175 61.4956 27.7049 59.8079C27.226 58.2308 26.3914 56.8426 24.8921 55.3002Z" fill="#404040" stroke="#404040" stroke-linejoin="round"/>
<path d="M36.3981 52.9265C34.7669 54.6402 24.7344 65.54 24.7344 65.54C24.7344 65.54 31.3975 58.3128 32.0794 53.1214C32.5465 49.5659 27.5859 45.2809 25.8822 43.6591C24.1784 42.0373 21.3096 39.1582 19.825 37.1511C18.3404 35.1441 18.0585 32.6488 18.3287 31.1243C18.5989 29.5999 21.2351 25.2796 21.2351 25.2796C21.2351 25.2796 33.2389 36.7057 35.2657 39.2288C37.2924 41.7518 38.6551 43.0912 38.8266 46.033C38.9868 48.7818 38.3023 50.926 36.3981 52.9265Z" fill="#6E3E9E" stroke="#6E3E9E" stroke-linejoin="round"/>
<path d="M27.4164 62.6544C26.1039 64.2852 21.9915 68.5215 21.9915 68.5215C21.9915 68.5215 24.2551 64.665 24.1327 62.8476C23.9497 60.1321 20.7996 56.9282 19.5218 55.7119C18.244 54.4956 16.0939 52.3346 14.9866 50.8228C13.8793 49.3111 13.6911 47.4152 13.9123 46.2524C14.1335 45.0896 16.1817 41.7748 16.1817 41.7748C16.1817 41.7748 25.1846 50.3443 26.6985 52.2431C28.2123 54.1419 29.2339 55.1469 29.3336 57.3837C29.4267 59.4736 28.7513 60.9958 27.4164 62.6544Z" fill="#00E4ED" stroke="#00E4ED" stroke-linejoin="round"/>
<path d="M54.7455 24.4821L49.7799 20.1092C49.7799 20.1092 52.2878 21.7144 53.6663 22.0325C55.726 22.5077 57.326 20.9182 57.9103 20.2548C58.4945 19.5913 59.5666 18.5007 60.4288 18.0285C61.291 17.5563 62.7119 17.8438 63.6786 18.2668C64.6454 18.6898 67.8023 20.9344 67.8023 20.9344C67.8023 20.9344 64.0569 24.8496 63.169 25.7078C62.2811 26.566 61.0972 27.4984 59.3862 27.0696C57.7875 26.6689 56.3598 25.9037 54.7455 24.4821Z" fill="#00E4ED" stroke="#00E4ED" stroke-linejoin="round"/>
<path d="M52.9413 36.091C54.5725 34.3774 64.9651 23.8204 64.9651 23.8204C64.9651 23.8204 58.0748 30.8313 52.9232 31.768C49.3951 32.4096 44.871 27.6661 43.1673 26.0442C41.4636 24.4224 38.4467 21.6989 36.3689 20.3149C34.2912 18.9309 31.785 18.7723 30.2757 19.1172C28.7664 19.4621 24.5812 22.3079 24.5812 22.3079C24.5812 22.3079 36.5846 33.7345 39.2044 35.6346C41.8242 37.5346 43.2291 38.8296 46.1758 38.8561C48.929 38.8807 51.037 38.0915 52.9413 36.091Z" fill="#404040" stroke="#404040" stroke-linejoin="round"/>
<path d="M62.2151 26.6413C63.7793 25.25 67.8079 20.934 67.8079 20.934C67.8079 20.934 64.0676 23.3848 62.2463 23.352C59.5251 23.3029 56.1701 20.3144 54.8923 19.098C53.6145 17.8817 51.3503 15.8407 49.7858 14.8092C48.2213 13.7777 46.3185 13.683 45.168 13.9612C44.0175 14.2394 40.8076 16.4483 40.8076 16.4483C40.8076 16.4483 49.8101 25.0183 51.7811 26.4368C53.7521 27.8554 54.8062 28.8262 57.0452 28.8156C59.1371 28.8058 60.6243 28.0562 62.2151 26.6413Z" fill="#6E3E9E" stroke="#6E3E9E" stroke-linejoin="round"/>
<path d="M38.2525 68.2138L43.2181 72.5867C43.2181 72.5867 40.7102 70.9815 39.3317 70.6634C37.272 70.1882 35.672 71.7777 35.0877 72.4411C34.5035 73.1046 33.4314 74.1952 32.5692 74.6674C31.707 75.1396 30.2861 74.8521 29.3193 74.4291C28.3526 74.0061 25.1957 71.7615 25.1957 71.7615C25.1957 71.7615 28.9411 67.8463 29.829 66.9881C30.7169 66.1299 31.9008 65.1975 33.6118 65.6263C35.2105 66.027 36.6381 66.7922 38.2525 68.2138Z" fill="#FF5295" stroke="#FF5295" stroke-linejoin="round"/>
<path d="M40.0567 56.6049C38.4255 58.3185 28.0329 68.8755 28.0329 68.8755C28.0329 68.8755 34.9232 61.8646 40.0748 60.9279C43.6029 60.2863 48.127 65.0298 49.8307 66.6517C51.5344 68.2735 54.5513 70.997 56.629 72.381C58.7068 73.765 61.2129 73.9236 62.7222 73.5787C64.2315 73.2338 68.4168 70.388 68.4168 70.388C68.4168 70.388 56.4134 58.9614 53.7936 57.0614C51.1738 55.1613 49.7689 53.8663 46.8222 53.8399C44.0689 53.8152 41.961 54.6045 40.0567 56.6049Z" fill="#00E4ED" stroke="#00E4ED" stroke-linejoin="round"/>
<path d="M30.783 66.0546C29.2187 67.4459 25.1901 71.7619 25.1901 71.7619C25.1901 71.7619 28.9304 69.3111 30.7517 69.3439C33.4729 69.393 36.828 72.3815 38.1057 73.5979C39.3835 74.8142 41.6477 76.8552 43.2122 77.8867C44.7767 78.9182 46.6795 79.0129 47.83 78.7347C48.9805 78.4565 52.1905 76.2476 52.1905 76.2476C52.1905 76.2476 43.188 67.6776 41.2169 66.2591C39.2459 64.8405 38.1918 63.8697 35.9529 63.8803C33.8609 63.8901 32.3737 64.6397 30.783 66.0546Z" fill="#404040" stroke="#404040" stroke-linejoin="round"/>
<path d="M68.1079 37.3957L72.7201 42.1399C72.7201 42.1399 70.9933 39.7141 70.6078 38.3529C70.0317 36.3192 71.5404 34.6428 72.1743 34.0266C72.8082 33.4104 73.8447 32.2859 74.2738 31.4015C74.703 30.517 74.3459 29.112 73.8758 28.1673C73.4058 27.2226 71.0083 24.18 71.0083 24.18C71.0083 24.18 67.2824 28.1137 66.469 29.0428C65.6555 29.9719 64.7825 31.2002 65.2951 32.888C65.774 34.465 66.6086 35.8533 68.1079 37.3957Z" fill="#404040" stroke="#404040" stroke-linejoin="round"/>
<path d="M56.602 39.7693C58.2331 38.0557 68.2656 27.1558 68.2656 27.1558C68.2656 27.1558 61.6025 34.3831 60.9206 39.5745C60.4536 43.1299 65.4141 47.415 67.1179 49.0368C68.8217 50.6585 71.6904 53.5377 73.175 55.5447C74.6597 57.5518 74.9415 60.0471 74.6713 61.5715C74.4011 63.096 71.7649 67.4163 71.7649 67.4163C71.7649 67.4163 59.7611 55.9902 57.7343 53.4671C55.7076 50.944 54.3449 49.6046 54.1735 46.6628C54.0132 43.9141 54.6977 41.7699 56.602 39.7693Z" fill="#FF5295" stroke="#FF5295" stroke-linejoin="round"/>
<path d="M65.5836 30.0415C66.8962 28.4107 71.0085 24.1744 71.0085 24.1744C71.0085 24.1744 68.7449 28.0309 68.8674 29.8483C69.0503 32.5638 72.2004 35.7676 73.4783 36.984C74.7561 38.2003 76.9061 40.3612 78.0134 41.873C79.1207 43.3848 79.3089 45.2806 79.0877 46.4435C78.8666 47.6063 76.8183 50.9211 76.8183 50.9211C76.8183 50.9211 67.8155 42.3515 66.3016 40.4528C64.7877 38.554 63.7661 37.5489 63.6664 35.3122C63.5733 33.2223 64.2487 31.7 65.5836 30.0415Z" fill="#00E4ED" stroke="#00E4ED" stroke-linejoin="round"/>
<mask id="path-13-outside-1_257_81" maskUnits="userSpaceOnUse" x="88" y="26" width="117" height="33" fill="black">
<rect fill="white" x="88" y="26" width="117" height="33"/>
<path d="M89.96 42.84V57H89.2V27.96H110.88V28.56H89.96V42.2H105.84V42.84H89.96ZM116.894 27.96H117.614V52.28C117.614 52.84 117.654 53.4 117.734 53.92C117.814 54.48 117.974 54.96 118.214 55.4C118.414 55.84 118.734 56.16 119.174 56.44C119.614 56.72 120.134 56.84 120.814 56.84C121.454 56.84 121.934 56.8 122.254 56.68C122.454 56.64 122.734 56.56 123.014 56.44V57.08C122.414 57.32 121.694 57.44 120.814 57.44C120.014 57.44 119.374 57.32 118.854 57.04C118.334 56.72 117.934 56.36 117.654 55.88C117.374 55.44 117.174 54.88 117.054 54.24C116.934 53.64 116.894 52.96 116.894 52.28V27.96ZM125.408 46.04C125.408 44.48 125.648 43 126.168 41.6C126.688 40.24 127.408 39.04 128.328 38C129.248 37 130.408 36.16 131.728 35.56C133.048 34.96 134.488 34.68 136.128 34.68C137.768 34.68 139.288 34.96 140.608 35.56C141.928 36.16 143.048 37 144.008 38C144.928 39.04 145.648 40.24 146.168 41.6C146.688 43 146.928 44.48 146.928 46.04C146.928 47.6 146.688 49.08 146.168 50.48C145.648 51.88 144.928 53.08 144.008 54.08C143.048 55.12 141.928 55.92 140.608 56.52C139.288 57.12 137.768 57.4 136.128 57.4C134.488 57.4 133.048 57.12 131.728 56.52C130.408 55.92 129.248 55.12 128.328 54.08C127.408 53.08 126.688 51.88 126.168 50.48C125.648 49.08 125.408 47.6 125.408 46.04ZM146.248 46.04C146.248 44.56 146.008 43.16 145.528 41.84C145.048 40.56 144.368 39.44 143.488 38.48C142.608 37.52 141.568 36.76 140.328 36.2C139.088 35.64 137.688 35.36 136.128 35.36C134.608 35.36 133.248 35.64 132.008 36.2C130.768 36.76 129.688 37.52 128.848 38.48C127.968 39.44 127.288 40.56 126.808 41.84C126.328 43.16 126.088 44.56 126.088 46.04C126.088 47.52 126.328 48.92 126.808 50.24C127.248 51.56 127.928 52.68 128.808 53.64C129.648 54.6 130.728 55.36 131.968 55.88C133.208 56.44 134.568 56.72 136.128 56.72C137.688 56.72 139.128 56.44 140.368 55.88C141.608 55.36 142.648 54.6 143.528 53.64C144.408 52.68 145.088 51.56 145.568 50.24C146.008 48.92 146.248 47.52 146.248 46.04ZM159.039 45.24L168.519 57H167.479L158.519 45.92L149.999 57H149.039L157.999 45.32L149.359 34.56H150.399L158.559 44.64L166.279 34.56H167.239L159.039 45.24ZM175.466 29.88C175.186 29.88 174.946 29.8 174.786 29.6C174.586 29.44 174.506 29.2 174.506 28.92C174.506 28.28 174.826 27.96 175.466 27.96C175.746 27.96 175.986 28.04 176.186 28.2C176.346 28.4 176.426 28.64 176.426 28.92C176.426 29.56 176.106 29.88 175.466 29.88ZM175.106 34.56H175.826V57H175.106V34.56ZM191.826 35.36C190.346 35.36 188.986 35.64 187.746 36.16C186.506 36.72 185.466 37.48 184.586 38.4C183.706 39.32 183.026 40.44 182.546 41.72C182.066 43 181.826 44.36 181.786 45.84H201.946C201.906 44.36 201.666 43 201.186 41.72C200.706 40.44 200.026 39.32 199.146 38.4C198.266 37.48 197.226 36.72 195.986 36.16C194.746 35.64 193.346 35.36 191.826 35.36ZM192.466 56.72C194.506 56.72 196.306 56.32 197.826 55.48C199.346 54.64 200.586 53.52 201.506 52.12L202.306 52.08C201.386 53.68 200.066 54.96 198.386 55.92C196.706 56.92 194.746 57.4 192.466 57.4C190.746 57.4 189.226 57.12 187.826 56.56C186.426 56 185.266 55.2 184.266 54.2C183.266 53.2 182.466 52 181.946 50.6C181.386 49.2 181.106 47.68 181.106 46.04C181.106 44.48 181.346 43 181.866 41.6C182.386 40.24 183.106 39.04 184.026 38C184.946 37 186.106 36.16 187.426 35.56C188.746 34.96 190.186 34.68 191.826 34.68C193.426 34.68 194.906 34.96 196.226 35.52C197.546 36.08 198.666 36.88 199.626 37.92C200.586 38.96 201.346 40.2 201.866 41.64C202.386 43.12 202.626 44.72 202.626 46.48H181.786C181.826 48 182.106 49.4 182.666 50.64C183.186 51.92 183.946 53 184.866 53.88C185.786 54.8 186.906 55.48 188.226 55.96C189.506 56.48 190.906 56.72 192.466 56.72Z"/>
</mask>
<path d="M89.96 42.84V57H89.2V27.96H110.88V28.56H89.96V42.2H105.84V42.84H89.96ZM116.894 27.96H117.614V52.28C117.614 52.84 117.654 53.4 117.734 53.92C117.814 54.48 117.974 54.96 118.214 55.4C118.414 55.84 118.734 56.16 119.174 56.44C119.614 56.72 120.134 56.84 120.814 56.84C121.454 56.84 121.934 56.8 122.254 56.68C122.454 56.64 122.734 56.56 123.014 56.44V57.08C122.414 57.32 121.694 57.44 120.814 57.44C120.014 57.44 119.374 57.32 118.854 57.04C118.334 56.72 117.934 56.36 117.654 55.88C117.374 55.44 117.174 54.88 117.054 54.24C116.934 53.64 116.894 52.96 116.894 52.28V27.96ZM125.408 46.04C125.408 44.48 125.648 43 126.168 41.6C126.688 40.24 127.408 39.04 128.328 38C129.248 37 130.408 36.16 131.728 35.56C133.048 34.96 134.488 34.68 136.128 34.68C137.768 34.68 139.288 34.96 140.608 35.56C141.928 36.16 143.048 37 144.008 38C144.928 39.04 145.648 40.24 146.168 41.6C146.688 43 146.928 44.48 146.928 46.04C146.928 47.6 146.688 49.08 146.168 50.48C145.648 51.88 144.928 53.08 144.008 54.08C143.048 55.12 141.928 55.92 140.608 56.52C139.288 57.12 137.768 57.4 136.128 57.4C134.488 57.4 133.048 57.12 131.728 56.52C130.408 55.92 129.248 55.12 128.328 54.08C127.408 53.08 126.688 51.88 126.168 50.48C125.648 49.08 125.408 47.6 125.408 46.04ZM146.248 46.04C146.248 44.56 146.008 43.16 145.528 41.84C145.048 40.56 144.368 39.44 143.488 38.48C142.608 37.52 141.568 36.76 140.328 36.2C139.088 35.64 137.688 35.36 136.128 35.36C134.608 35.36 133.248 35.64 132.008 36.2C130.768 36.76 129.688 37.52 128.848 38.48C127.968 39.44 127.288 40.56 126.808 41.84C126.328 43.16 126.088 44.56 126.088 46.04C126.088 47.52 126.328 48.92 126.808 50.24C127.248 51.56 127.928 52.68 128.808 53.64C129.648 54.6 130.728 55.36 131.968 55.88C133.208 56.44 134.568 56.72 136.128 56.72C137.688 56.72 139.128 56.44 140.368 55.88C141.608 55.36 142.648 54.6 143.528 53.64C144.408 52.68 145.088 51.56 145.568 50.24C146.008 48.92 146.248 47.52 146.248 46.04ZM159.039 45.24L168.519 57H167.479L158.519 45.92L149.999 57H149.039L157.999 45.32L149.359 34.56H150.399L158.559 44.64L166.279 34.56H167.239L159.039 45.24ZM175.466 29.88C175.186 29.88 174.946 29.8 174.786 29.6C174.586 29.44 174.506 29.2 174.506 28.92C174.506 28.28 174.826 27.96 175.466 27.96C175.746 27.96 175.986 28.04 176.186 28.2C176.346 28.4 176.426 28.64 176.426 28.92C176.426 29.56 176.106 29.88 175.466 29.88ZM175.106 34.56H175.826V57H175.106V34.56ZM191.826 35.36C190.346 35.36 188.986 35.64 187.746 36.16C186.506 36.72 185.466 37.48 184.586 38.4C183.706 39.32 183.026 40.44 182.546 41.72C182.066 43 181.826 44.36 181.786 45.84H201.946C201.906 44.36 201.666 43 201.186 41.72C200.706 40.44 200.026 39.32 199.146 38.4C198.266 37.48 197.226 36.72 195.986 36.16C194.746 35.64 193.346 35.36 191.826 35.36ZM192.466 56.72C194.506 56.72 196.306 56.32 197.826 55.48C199.346 54.64 200.586 53.52 201.506 52.12L202.306 52.08C201.386 53.68 200.066 54.96 198.386 55.92C196.706 56.92 194.746 57.4 192.466 57.4C190.746 57.4 189.226 57.12 187.826 56.56C186.426 56 185.266 55.2 184.266 54.2C183.266 53.2 182.466 52 181.946 50.6C181.386 49.2 181.106 47.68 181.106 46.04C181.106 44.48 181.346 43 181.866 41.6C182.386 40.24 183.106 39.04 184.026 38C184.946 37 186.106 36.16 187.426 35.56C188.746 34.96 190.186 34.68 191.826 34.68C193.426 34.68 194.906 34.96 196.226 35.52C197.546 36.08 198.666 36.88 199.626 37.92C200.586 38.96 201.346 40.2 201.866 41.64C202.386 43.12 202.626 44.72 202.626 46.48H181.786C181.826 48 182.106 49.4 182.666 50.64C183.186 51.92 183.946 53 184.866 53.88C185.786 54.8 186.906 55.48 188.226 55.96C189.506 56.48 190.906 56.72 192.466 56.72Z" fill="black"/>
<path d="M89.96 42.84V41.84H88.96V42.84H89.96ZM89.96 57V58H90.96V57H89.96ZM89.2 57H88.2V58H89.2V57ZM89.2 27.96V26.96H88.2V27.96H89.2ZM110.88 27.96H111.88V26.96H110.88V27.96ZM110.88 28.56V29.56H111.88V28.56H110.88ZM89.96 28.56V27.56H88.96V28.56H89.96ZM89.96 42.2H88.96V43.2H89.96V42.2ZM105.84 42.2H106.84V41.2H105.84V42.2ZM105.84 42.84V43.84H106.84V42.84H105.84ZM88.96 42.84V57H90.96V42.84H88.96ZM89.96 56H89.2V58H89.96V56ZM90.2 57V27.96H88.2V57H90.2ZM89.2 28.96H110.88V26.96H89.2V28.96ZM109.88 27.96V28.56H111.88V27.96H109.88ZM110.88 27.56H89.96V29.56H110.88V27.56ZM88.96 28.56V42.2H90.96V28.56H88.96ZM89.96 43.2H105.84V41.2H89.96V43.2ZM104.84 42.2V42.84H106.84V42.2H104.84ZM105.84 41.84H89.96V43.84H105.84V41.84ZM116.894 27.96V26.96H115.894V27.96H116.894ZM117.614 27.96H118.614V26.96H117.614V27.96ZM117.734 53.92L118.724 53.7786L118.722 53.7679L117.734 53.92ZM118.214 55.4L119.124 54.9862L119.109 54.9531L119.092 54.9211L118.214 55.4ZM119.174 56.44L118.637 57.2837L118.637 57.2837L119.174 56.44ZM122.254 56.68L122.058 55.6994L121.978 55.7153L121.903 55.7437L122.254 56.68ZM123.014 56.44H124.014V54.9235L122.62 55.5209L123.014 56.44ZM123.014 57.08L123.385 58.0085L124.014 57.757V57.08H123.014ZM118.854 57.04L118.33 57.8917L118.354 57.9068L118.38 57.9205L118.854 57.04ZM117.654 55.88L118.518 55.3761L118.508 55.3594L118.497 55.3431L117.654 55.88ZM117.054 54.24L118.037 54.0557L118.034 54.0439L117.054 54.24ZM116.894 28.96H117.614V26.96H116.894V28.96ZM116.614 27.96V52.28H118.614V27.96H116.614ZM116.614 52.28C116.614 52.8858 116.657 53.4969 116.745 54.0721L118.722 53.7679C118.651 53.3031 118.614 52.7942 118.614 52.28H116.614ZM116.744 54.0614C116.84 54.7329 117.035 55.3281 117.336 55.8789L119.092 54.9211C118.912 54.5919 118.788 54.2271 118.724 53.7786L116.744 54.0614ZM117.303 55.8138C117.605 56.4772 118.083 56.9313 118.637 57.2837L119.711 55.5963C119.384 55.3887 119.223 55.2028 119.124 54.9862L117.303 55.8138ZM118.637 57.2837C119.288 57.698 120.014 57.84 120.814 57.84V55.84C120.253 55.84 119.939 55.742 119.711 55.5963L118.637 57.2837ZM120.814 57.84C121.45 57.84 122.097 57.8069 122.605 57.6163L121.903 55.7437C121.771 55.7931 121.458 55.84 120.814 55.84V57.84ZM122.45 57.6606C122.714 57.6077 123.061 57.5078 123.408 57.3591L122.62 55.5209C122.407 55.6122 122.193 55.6723 122.058 55.6994L122.45 57.6606ZM122.014 56.44V57.08H124.014V56.44H122.014ZM122.642 56.1515C122.192 56.3315 121.606 56.44 120.814 56.44V58.44C121.781 58.44 122.635 58.3085 123.385 58.0085L122.642 56.1515ZM120.814 56.44C120.104 56.44 119.648 56.3319 119.328 56.1595L118.38 57.9205C119.099 58.3081 119.923 58.44 120.814 58.44V56.44ZM119.378 56.1883C118.951 55.9256 118.691 55.6729 118.518 55.3761L116.79 56.3839C117.177 57.0471 117.717 57.5144 118.33 57.8917L119.378 56.1883ZM118.497 55.3431C118.304 55.0397 118.14 54.6093 118.037 54.0557L116.071 54.4243C116.207 55.1507 116.443 55.8403 116.81 56.4169L118.497 55.3431ZM118.034 54.0439C117.933 53.5352 117.894 52.9287 117.894 52.28H115.894C115.894 52.9913 115.935 53.7448 116.073 54.4361L118.034 54.0439ZM117.894 52.28V27.96H115.894V52.28H117.894ZM126.168 41.6L125.234 41.2428L125.23 41.2518L126.168 41.6ZM128.328 38L127.592 37.3229L127.585 37.3301L127.579 37.3374L128.328 38ZM131.728 35.56L132.142 36.4704L132.142 36.4704L131.728 35.56ZM140.608 35.56L141.022 34.6496L141.022 34.6496L140.608 35.56ZM144.008 38L144.757 37.3374L144.743 37.3222L144.729 37.3075L144.008 38ZM146.168 41.6L147.105 41.2518L147.102 41.2429L146.168 41.6ZM146.168 50.48L145.23 50.1318L145.23 50.1318L146.168 50.48ZM144.008 54.08L144.743 54.7583L144.744 54.7571L144.008 54.08ZM140.608 56.52L141.022 57.4304L141.022 57.4304L140.608 56.52ZM131.728 56.52L132.142 55.6096L132.142 55.6096L131.728 56.52ZM128.328 54.08L129.077 53.4174L129.07 53.4101L129.064 53.4029L128.328 54.08ZM126.168 50.48L125.23 50.8282L125.23 50.8282L126.168 50.48ZM145.528 41.84L146.468 41.4982L146.464 41.4889L145.528 41.84ZM143.488 38.48L144.225 37.8043L144.225 37.8043L143.488 38.48ZM140.328 36.2L140.739 35.2886L140.739 35.2886L140.328 36.2ZM128.848 38.48L129.585 39.1557L129.593 39.1472L129.6 39.1385L128.848 38.48ZM126.808 41.84L125.871 41.4889L125.868 41.4983L126.808 41.84ZM126.808 50.24L127.756 49.9238L127.752 49.911L127.748 49.8983L126.808 50.24ZM128.808 53.64L129.56 52.9815L129.553 52.9728L129.545 52.9643L128.808 53.64ZM131.968 55.88L132.379 54.9686L132.367 54.963L132.355 54.9578L131.968 55.88ZM140.368 55.88L139.981 54.9578L139.969 54.963L139.956 54.9686L140.368 55.88ZM143.528 53.64L142.791 52.9643L142.791 52.9643L143.528 53.64ZM145.568 50.24L146.508 50.5817L146.512 50.569L146.516 50.5562L145.568 50.24ZM126.408 46.04C126.408 44.5842 126.631 43.2238 127.105 41.9482L125.23 41.2518C124.664 42.7762 124.408 44.3757 124.408 46.04H126.408ZM127.102 41.9571C127.581 40.7037 128.24 39.6084 129.077 38.6626L127.579 37.3374C126.575 38.4716 125.795 39.7763 125.234 41.2429L127.102 41.9571ZM129.064 38.6771C129.89 37.7789 130.939 37.0168 132.142 36.4704L131.314 34.6496C129.876 35.3032 128.606 36.2211 127.592 37.3229L129.064 38.6771ZM132.142 36.4704C133.311 35.9388 134.606 35.68 136.128 35.68V33.68C134.37 33.68 132.785 33.9812 131.314 34.6496L132.142 36.4704ZM136.128 35.68C137.657 35.68 139.03 35.9414 140.194 36.4704L141.022 34.6496C139.545 33.9786 137.879 33.68 136.128 33.68V35.68ZM140.194 36.4704C141.385 37.0116 142.403 37.7724 143.286 38.6925L144.729 37.3075C143.693 36.2276 142.471 35.3084 141.022 34.6496L140.194 36.4704ZM143.259 38.6626C144.095 39.6084 144.755 40.7037 145.234 41.9571L147.102 41.2429C146.541 39.7763 145.76 38.4716 144.757 37.3374L143.259 38.6626ZM145.23 41.9482C145.704 43.2238 145.928 44.5842 145.928 46.04H147.928C147.928 44.3757 147.671 42.7762 147.105 41.2518L145.23 41.9482ZM145.928 46.04C145.928 47.4957 145.704 48.8562 145.23 50.1318L147.105 50.8282C147.671 49.3038 147.928 47.7042 147.928 46.04H145.928ZM145.23 50.1318C144.751 51.4222 144.096 52.5075 143.272 53.4029L144.744 54.7571C145.76 53.6525 146.545 52.3378 147.105 50.8282L145.23 50.1318ZM143.273 53.4017C142.407 54.3397 141.398 55.0625 140.194 55.6096L141.022 57.4304C142.458 56.7775 143.688 55.9003 144.743 54.7583L143.273 53.4017ZM140.194 55.6096C139.03 56.1386 137.657 56.4 136.128 56.4V58.4C137.879 58.4 139.545 58.1014 141.022 57.4304L140.194 55.6096ZM136.128 56.4C134.606 56.4 133.311 56.1412 132.142 55.6096L131.314 57.4304C132.785 58.0988 134.37 58.4 136.128 58.4V56.4ZM132.142 55.6096C130.925 55.0567 129.887 54.3338 129.077 53.4174L127.579 54.7426C128.608 55.9062 129.891 56.7833 131.314 57.4304L132.142 55.6096ZM129.064 53.4029C128.24 52.5075 127.585 51.4222 127.105 50.1318L125.23 50.8282C125.791 52.3378 126.576 53.6525 127.592 54.7571L129.064 53.4029ZM127.105 50.1318C126.631 48.8562 126.408 47.4957 126.408 46.04H124.408C124.408 47.7042 124.664 49.3038 125.23 50.8282L127.105 50.1318ZM147.248 46.04C147.248 44.4498 146.99 42.9336 146.468 41.4983L144.588 42.1817C145.026 43.3864 145.248 44.6702 145.248 46.04H147.248ZM146.464 41.4889C145.941 40.095 145.196 38.8634 144.225 37.8043L142.751 39.1557C143.54 40.0166 144.154 41.025 144.591 42.1911L146.464 41.4889ZM144.225 37.8043C143.254 36.7445 142.103 35.9043 140.739 35.2886L139.916 37.1114C141.033 37.6157 141.962 38.2955 142.751 39.1557L144.225 37.8043ZM140.739 35.2886C139.352 34.6622 137.809 34.36 136.128 34.36V36.36C137.567 36.36 138.823 36.6178 139.916 37.1114L140.739 35.2886ZM136.128 34.36C134.481 34.36 132.978 34.6645 131.596 35.2886L132.419 37.1114C133.517 36.6155 134.735 36.36 136.128 36.36V34.36ZM131.596 35.2886C130.246 35.8982 129.043 36.7379 128.095 37.8215L129.6 39.1385C130.332 38.3021 131.289 37.6218 132.419 37.1114L131.596 35.2886ZM128.111 37.8043C127.14 38.8634 126.394 40.095 125.871 41.4889L127.744 42.1911C128.181 41.025 128.796 40.0166 129.585 39.1557L128.111 37.8043ZM125.868 41.4983C125.346 42.9336 125.088 44.4498 125.088 46.04H127.088C127.088 44.6702 127.31 43.3864 127.748 42.1817L125.868 41.4983ZM125.088 46.04C125.088 47.6302 125.346 49.1464 125.868 50.5817L127.748 49.8983C127.31 48.6936 127.088 47.4098 127.088 46.04H125.088ZM125.859 50.5562C126.345 52.0139 127.099 53.2555 128.071 54.3157L129.545 52.9643C128.757 52.1045 128.151 51.1061 127.756 49.9238L125.859 50.5562ZM128.055 54.2985C129.003 55.382 130.212 56.228 131.581 56.8022L132.355 54.9578C131.244 54.492 130.292 53.818 129.56 52.9815L128.055 54.2985ZM131.556 56.7914C132.94 57.4163 134.443 57.72 136.128 57.72V55.72C134.693 55.72 133.476 55.4637 132.379 54.9686L131.556 56.7914ZM136.128 57.72C137.805 57.72 139.389 57.4192 140.779 56.7914L139.956 54.9686C138.866 55.4608 137.571 55.72 136.128 55.72V57.72ZM140.755 56.8022C142.137 56.2225 143.294 55.3748 144.265 54.3157L142.791 52.9643C142.001 53.8252 141.079 54.4975 139.981 54.9578L140.755 56.8022ZM144.265 54.3157C145.237 53.2552 145.984 52.0206 146.508 50.5817L144.628 49.8983C144.191 51.0994 143.579 52.1048 142.791 52.9643L144.265 54.3157ZM146.516 50.5562C146.99 49.1368 147.248 47.6301 147.248 46.04H145.248C145.248 47.4099 145.026 48.7032 144.619 49.9238L146.516 50.5562ZM159.039 45.24L158.246 44.631L157.767 45.2551L158.261 45.8676L159.039 45.24ZM168.519 57V58H170.61L169.298 56.3724L168.519 57ZM167.479 57L166.701 57.6288L167.002 58H167.479V57ZM158.519 45.92L159.297 45.2912L158.499 44.3052L157.726 45.3104L158.519 45.92ZM149.999 57V58H150.492L150.792 57.6096L149.999 57ZM149.039 57L148.246 56.3913L147.012 58H149.039V57ZM157.999 45.32L158.792 45.9287L159.27 45.3059L158.779 44.6939L157.999 45.32ZM149.359 34.56V33.56H147.274L148.579 35.1861L149.359 34.56ZM150.399 34.56L151.176 33.9308L150.876 33.56H150.399V34.56ZM158.559 44.64L157.782 45.2692L158.581 46.2562L159.353 45.248L158.559 44.64ZM166.279 34.56V33.56H165.785L165.485 33.952L166.279 34.56ZM167.239 34.56L168.032 35.169L169.268 33.56H167.239V34.56ZM158.261 45.8676L167.741 57.6276L169.298 56.3724L159.818 44.6124L158.261 45.8676ZM168.519 56H167.479V58H168.519V56ZM168.257 56.3712L159.297 45.2912L157.741 46.5488L166.701 57.6288L168.257 56.3712ZM157.726 45.3104L149.206 56.3904L150.792 57.6096L159.312 46.5296L157.726 45.3104ZM149.999 56H149.039V58H149.999V56ZM149.832 57.6087L158.792 45.9287L157.206 44.7113L148.246 56.3913L149.832 57.6087ZM158.779 44.6939L150.139 33.9339L148.579 35.1861L157.219 45.9461L158.779 44.6939ZM149.359 35.56H150.399V33.56H149.359V35.56ZM149.622 35.1892L157.782 45.2692L159.336 44.0108L151.176 33.9308L149.622 35.1892ZM159.353 45.248L167.073 35.168L165.485 33.952L157.765 44.032L159.353 45.248ZM166.279 35.56H167.239V33.56H166.279V35.56ZM166.446 33.951L158.246 44.631L159.832 45.849L168.032 35.169L166.446 33.951ZM174.786 29.6L175.567 28.9753L175.498 28.8885L175.411 28.8191L174.786 29.6ZM176.186 28.2L176.967 27.5753L176.898 27.4885L176.811 27.4191L176.186 28.2ZM175.106 34.56V33.56H174.106V34.56H175.106ZM175.826 34.56H176.826V33.56H175.826V34.56ZM175.826 57V58H176.826V57H175.826ZM175.106 57H174.106V58H175.106V57ZM175.466 28.88C175.418 28.88 175.417 28.8727 175.446 28.8838C175.461 28.8897 175.482 28.9002 175.506 28.9172C175.53 28.9344 175.55 28.9545 175.567 28.9753L174.005 30.2247C174.419 30.7418 175.002 30.88 175.466 30.88V28.88ZM175.411 28.8191C175.432 28.8358 175.452 28.8567 175.469 28.8805C175.486 28.904 175.497 28.9253 175.502 28.9406C175.514 28.9689 175.506 28.9683 175.506 28.92H173.506C173.506 29.3842 173.645 29.9672 174.162 30.3809L175.411 28.8191ZM175.506 28.92C175.506 28.8813 175.509 28.854 175.511 28.8364C175.514 28.819 175.516 28.8131 175.515 28.8162C175.514 28.8197 175.509 28.8319 175.499 28.8495C175.488 28.8674 175.473 28.8875 175.453 28.9071C175.434 28.9267 175.414 28.9417 175.396 28.9525C175.378 28.963 175.366 28.9675 175.362 28.9687C175.359 28.9697 175.365 28.9674 175.383 28.9649C175.4 28.9624 175.428 28.96 175.466 28.96V26.96C174.992 26.96 174.453 27.0792 174.039 27.4929C173.625 27.9066 173.506 28.4459 173.506 28.92H175.506ZM175.466 28.96C175.542 28.96 175.556 28.9762 175.562 28.9809L176.811 27.4191C176.417 27.1038 175.951 26.96 175.466 26.96V28.96ZM175.405 28.8247C175.41 28.8305 175.426 28.8445 175.426 28.92H177.426C177.426 28.4355 177.282 27.9695 176.967 27.5753L175.405 28.8247ZM175.426 28.92C175.426 28.9587 175.424 28.986 175.421 29.0036C175.419 29.021 175.417 29.0269 175.418 29.0238C175.419 29.0203 175.423 29.0081 175.434 28.9905C175.445 28.9726 175.46 28.9525 175.479 28.9329C175.499 28.9133 175.519 28.8983 175.537 28.8875C175.554 28.877 175.567 28.8725 175.57 28.8713C175.573 28.8703 175.567 28.8726 175.55 28.875C175.532 28.8776 175.505 28.88 175.466 28.88V30.88C175.94 30.88 176.48 30.7608 176.893 30.3471C177.307 29.9334 177.426 29.3941 177.426 28.92H175.426ZM175.106 35.56H175.826V33.56H175.106V35.56ZM174.826 34.56V57H176.826V34.56H174.826ZM175.826 56H175.106V58H175.826V56ZM176.106 57V34.56H174.106V57H176.106ZM187.746 36.16L187.36 35.2378L187.347 35.243L187.335 35.2486L187.746 36.16ZM181.786 45.84L180.787 45.813L180.759 46.84H181.786V45.84ZM201.946 45.84V46.84H202.974L202.946 45.813L201.946 45.84ZM201.186 41.72L202.123 41.3689L202.123 41.3689L201.186 41.72ZM199.146 38.4L199.869 37.7088L199.869 37.7088L199.146 38.4ZM195.986 36.16L196.398 35.2486L196.385 35.243L196.373 35.2378L195.986 36.16ZM197.826 55.48L197.343 54.6048L197.343 54.6048L197.826 55.48ZM201.506 52.12L201.456 51.1212L200.949 51.1466L200.671 51.5708L201.506 52.12ZM202.306 52.08L203.173 52.5785L204.087 50.9897L202.256 51.0812L202.306 52.08ZM198.386 55.92L197.89 55.0518L197.882 55.0562L197.875 55.0607L198.386 55.92ZM187.826 56.56L187.455 57.4885L187.455 57.4885L187.826 56.56ZM184.266 54.2L183.559 54.9071L183.559 54.9071L184.266 54.2ZM181.946 50.6L182.884 50.2518L182.879 50.2402L182.875 50.2286L181.946 50.6ZM181.866 41.6L180.932 41.2428L180.929 41.2518L181.866 41.6ZM184.026 38L183.29 37.3229L183.284 37.3301L183.277 37.3374L184.026 38ZM187.426 35.56L187.84 36.4704L187.84 36.4704L187.426 35.56ZM196.226 35.52L196.617 34.5994L196.617 34.5994L196.226 35.52ZM199.626 37.92L198.891 38.5983L198.891 38.5983L199.626 37.92ZM201.866 41.64L202.81 41.3085L202.807 41.3004L201.866 41.64ZM202.626 46.48V47.48H203.626V46.48H202.626ZM181.786 46.48V45.48H180.76L180.787 46.5063L181.786 46.48ZM182.666 50.64L183.593 50.2636L183.586 50.2459L183.578 50.2284L182.666 50.64ZM184.866 53.88L185.573 53.1729L185.566 53.165L185.557 53.1574L184.866 53.88ZM188.226 55.96L188.603 55.0335L188.585 55.0265L188.568 55.0202L188.226 55.96ZM191.826 34.36C190.217 34.36 188.725 34.6651 187.36 35.2378L188.133 37.0822C189.247 36.6149 190.476 36.36 191.826 36.36V34.36ZM187.335 35.2486C185.973 35.8638 184.828 36.7004 183.864 37.7088L185.309 39.0912C186.104 38.2596 187.04 37.5762 188.158 37.0714L187.335 35.2486ZM183.864 37.7088C182.88 38.7374 182.132 39.9771 181.61 41.3689L183.483 42.0711C183.921 40.9029 184.533 39.9026 185.309 39.0912L183.864 37.7088ZM181.61 41.3689C181.085 42.7678 180.829 44.2396 180.787 45.813L182.786 45.867C182.823 44.4804 183.047 43.2322 183.483 42.0711L181.61 41.3689ZM181.786 46.84H201.946V44.84H181.786V46.84ZM202.946 45.813C202.903 44.2396 202.647 42.7678 202.123 41.3689L200.25 42.0711C200.685 43.2322 200.909 44.4804 200.947 45.867L202.946 45.813ZM202.123 41.3689C201.601 39.9771 200.853 38.7374 199.869 37.7088L198.424 39.0912C199.2 39.9026 199.812 40.9029 200.25 42.0711L202.123 41.3689ZM199.869 37.7088C198.904 36.7004 197.76 35.8638 196.398 35.2486L195.575 37.0714C196.693 37.5762 197.628 38.2596 198.424 39.0912L199.869 37.7088ZM196.373 35.2378C195.002 34.663 193.47 34.36 191.826 34.36V36.36C193.223 36.36 194.49 36.617 195.6 37.0822L196.373 35.2378ZM192.466 57.72C194.636 57.72 196.611 57.2943 198.31 56.3552L197.343 54.6048C196.002 55.3457 194.377 55.72 192.466 55.72V57.72ZM198.31 56.3552C199.962 55.4425 201.327 54.2144 202.342 52.6692L200.671 51.5708C199.846 52.8256 198.731 53.8375 197.343 54.6048L198.31 56.3552ZM201.556 53.1188L202.356 53.0788L202.256 51.0812L201.456 51.1212L201.556 53.1188ZM201.439 51.5815C200.615 53.0155 199.428 54.1727 197.89 55.0518L198.882 56.7882C200.704 55.7473 202.158 54.3445 203.173 52.5785L201.439 51.5815ZM197.875 55.0607C196.377 55.9519 194.602 56.4 192.466 56.4V58.4C194.891 58.4 197.035 57.8881 198.898 56.7793L197.875 55.0607ZM192.466 56.4C190.859 56.4 189.467 56.1392 188.198 55.6315L187.455 57.4885C188.986 58.1008 190.634 58.4 192.466 58.4V56.4ZM188.198 55.6315C186.932 55.1253 185.884 54.404 184.973 53.4929L183.559 54.9071C184.648 55.996 185.92 56.8747 187.455 57.4885L188.198 55.6315ZM184.973 53.4929C184.069 52.5889 183.351 51.5096 182.884 50.2518L181.009 50.9482C181.582 52.4904 182.463 53.8111 183.559 54.9071L184.973 53.4929ZM182.875 50.2286C182.366 48.9567 182.106 47.564 182.106 46.04H180.106C180.106 47.796 180.407 49.4433 181.018 50.9714L182.875 50.2286ZM182.106 46.04C182.106 44.5842 182.33 43.2238 182.804 41.9482L180.929 41.2518C180.363 42.7762 180.106 44.3757 180.106 46.04H182.106ZM182.8 41.9571C183.28 40.7037 183.939 39.6084 184.775 38.6626L183.277 37.3374C182.274 38.4716 181.493 39.7763 180.932 41.2429L182.8 41.9571ZM184.762 38.6771C185.589 37.7789 186.638 37.0168 187.84 36.4704L187.012 34.6496C185.575 35.3032 184.304 36.2211 183.29 37.3229L184.762 38.6771ZM187.84 36.4704C189.01 35.9388 190.305 35.68 191.826 35.68V33.68C190.068 33.68 188.483 33.9812 187.012 34.6496L187.84 36.4704ZM191.826 35.68C193.309 35.68 194.654 35.9394 195.836 36.4406L196.617 34.5994C195.158 33.9806 193.543 33.68 191.826 33.68V35.68ZM195.836 36.4406C197.022 36.9437 198.025 37.6598 198.891 38.5983L200.361 37.2417C199.307 36.1002 198.071 35.2163 196.617 34.5994L195.836 36.4406ZM198.891 38.5983C199.759 39.5383 200.45 40.6625 200.926 41.9796L202.807 41.3004C202.242 39.7375 201.413 38.3817 200.361 37.2417L198.891 38.5983ZM200.923 41.9715C201.399 43.3268 201.626 44.8119 201.626 46.48H203.626C203.626 44.6281 203.374 42.9132 202.81 41.3085L200.923 41.9715ZM202.626 45.48H181.786V47.48H202.626V45.48ZM180.787 46.5063C180.829 48.1314 181.13 49.6672 181.755 51.0516L183.578 50.2284C183.083 49.1328 182.823 47.8686 182.786 46.4537L180.787 46.5063ZM181.74 51.0164C182.315 52.4321 183.157 53.6289 184.175 54.6026L185.557 53.1574C184.735 52.3711 184.058 51.4079 183.593 50.2636L181.74 51.0164ZM184.159 54.5871C185.196 55.6244 186.447 56.3771 187.885 56.8998L188.568 55.0202C187.366 54.5829 186.376 53.9756 185.573 53.1729L184.159 54.5871ZM187.85 56.8865C189.27 57.4636 190.802 57.72 192.466 57.72V55.72C191.01 55.72 189.742 55.4964 188.603 55.0335L187.85 56.8865Z" fill="black" mask="url(#path-13-outside-1_257_81)"/>
<mask id="path-15-outside-2_257_81" maskUnits="userSpaceOnUse" x="145" y="64" width="59" height="14" fill="black">
<rect fill="white" x="145" y="64" width="59" height="14"/>
<path d="M150.824 65.208C153.384 65.208 154.952 66.104 155.544 67.896H155.24C154.68 66.264 153.208 65.448 150.824 65.448C149.992 65.448 149.24 65.576 148.584 65.832C148.312 65.944 148.056 66.072 147.816 66.232C147.56 66.392 147.336 66.568 147.144 66.776C146.952 66.984 146.792 67.224 146.68 67.48C146.568 67.752 146.504 68.04 146.504 68.344C146.504 68.872 146.648 69.304 146.952 69.64C147.144 69.896 147.416 70.104 147.784 70.28C148.152 70.456 148.536 70.616 148.952 70.728C149.352 70.84 149.768 70.936 150.184 71.016C150.584 71.096 150.936 71.16 151.224 71.208C152.328 71.384 153.224 71.592 153.896 71.864C154.456 72.104 154.904 72.376 155.24 72.712C155.576 73.048 155.752 73.528 155.768 74.184C155.784 74.76 155.592 75.272 155.192 75.736C154.952 76.008 154.68 76.248 154.36 76.424C154.024 76.6 153.688 76.744 153.32 76.856C152.952 76.968 152.568 77.064 152.2 77.112C151.816 77.16 151.448 77.176 151.112 77.176C150.568 77.176 150.008 77.128 149.448 77.032C148.888 76.936 148.36 76.776 147.864 76.536C147.368 76.296 146.952 75.976 146.6 75.576C146.232 75.176 145.992 74.68 145.88 74.072H146.216C146.312 74.632 146.536 75.08 146.888 75.448C147.224 75.816 147.64 76.12 148.104 76.328C148.568 76.552 149.064 76.712 149.592 76.792C150.12 76.888 150.632 76.936 151.112 76.936C151.528 76.936 151.992 76.888 152.504 76.808C153.016 76.728 153.496 76.568 153.944 76.36C154.392 76.152 154.776 75.88 155.08 75.512C155.384 75.16 155.528 74.712 155.528 74.184C155.528 73.672 155.368 73.256 155.064 72.92C154.76 72.584 154.376 72.328 153.928 72.12C153.48 71.928 153 71.784 152.504 71.688C152.008 71.592 151.56 71.512 151.176 71.448C149.928 71.272 148.936 71.048 148.216 70.776C147.624 70.552 147.144 70.264 146.776 69.896C146.408 69.528 146.232 69.016 146.232 68.344C146.232 67.784 146.392 67.288 146.696 66.888C147 66.488 147.368 66.168 147.832 65.912C148.28 65.672 148.776 65.48 149.32 65.368C149.848 65.256 150.36 65.208 150.824 65.208ZM163.701 76.28L163.845 76.504C163.637 76.728 163.365 76.888 163.061 77.016C162.757 77.128 162.453 77.176 162.149 77.176C160.741 77.176 160.037 76.376 160.037 74.776V68.264H158.277V68.024H160.037V65.384H160.325V68.024H163.717V68.264H160.325V74.776C160.325 75.096 160.357 75.384 160.421 75.64C160.469 75.912 160.581 76.136 160.725 76.328C160.869 76.52 161.045 76.664 161.285 76.776C161.525 76.888 161.813 76.936 162.149 76.936C162.773 76.936 163.301 76.712 163.701 76.28ZM175.181 73.08V68.024H175.469L175.533 77.032H175.261L175.181 74.36C175.037 74.776 174.845 75.16 174.605 75.496C174.349 75.848 174.045 76.152 173.709 76.392C173.373 76.648 172.989 76.84 172.573 76.984C172.141 77.128 171.677 77.192 171.181 77.192C170.525 77.192 169.933 77.08 169.405 76.84C168.877 76.6 168.413 76.28 168.045 75.864C167.661 75.464 167.373 74.984 167.165 74.424C166.957 73.864 166.861 73.272 166.861 72.648V68.024H167.133V72.648C167.133 73.24 167.229 73.8 167.421 74.328C167.613 74.856 167.885 75.304 168.237 75.688C168.589 76.072 169.021 76.376 169.517 76.6C170.013 76.824 170.573 76.936 171.181 76.936C171.757 76.936 172.285 76.84 172.765 76.632C173.229 76.44 173.645 76.168 173.981 75.816C174.317 75.48 174.605 75.064 174.813 74.6C175.021 74.136 175.133 73.624 175.181 73.08ZM182.844 76.888C183.42 76.888 183.948 76.792 184.428 76.6C184.892 76.408 185.308 76.136 185.644 75.784C185.98 75.448 186.268 75.032 186.476 74.568C186.684 74.104 186.796 73.608 186.844 73.064V72.2C186.796 71.656 186.684 71.144 186.476 70.664C186.268 70.2 185.98 69.784 185.644 69.448C185.308 69.112 184.892 68.84 184.428 68.632C183.948 68.44 183.42 68.344 182.844 68.344C182.236 68.344 181.676 68.456 181.18 68.68C180.684 68.904 180.252 69.208 179.9 69.592C179.548 69.976 179.276 70.424 179.084 70.936C178.892 71.464 178.796 72.024 178.796 72.616C178.796 73.208 178.892 73.768 179.084 74.296C179.276 74.824 179.548 75.272 179.9 75.656C180.252 76.04 180.684 76.344 181.18 76.552C181.676 76.776 182.22 76.888 182.844 76.888ZM182.844 68.072C183.34 68.072 183.804 68.136 184.236 68.28C184.652 68.424 185.036 68.616 185.372 68.856C185.708 69.112 186.012 69.416 186.268 69.752C186.508 70.104 186.7 70.488 186.844 70.904V65.384H187.132V77H186.844V74.344C186.7 74.76 186.508 75.144 186.268 75.48C186.012 75.816 185.708 76.12 185.372 76.36C185.036 76.616 184.652 76.808 184.236 76.952C183.804 77.096 183.34 77.16 182.844 77.16C182.188 77.16 181.596 77.048 181.068 76.808C180.54 76.568 180.076 76.248 179.708 75.832C179.324 75.432 179.036 74.952 178.828 74.392C178.62 73.832 178.524 73.24 178.524 72.616C178.524 71.992 178.62 71.4 178.828 70.84C179.036 70.296 179.324 69.816 179.708 69.4C180.076 69 180.54 68.664 181.068 68.424C181.596 68.184 182.188 68.072 182.844 68.072ZM190.883 66.152C190.771 66.152 190.675 66.12 190.611 66.04C190.531 65.976 190.499 65.88 190.499 65.768C190.499 65.512 190.627 65.384 190.883 65.384C190.995 65.384 191.091 65.416 191.171 65.48C191.235 65.56 191.267 65.656 191.267 65.768C191.267 66.024 191.139 66.152 190.883 66.152ZM190.739 68.024H191.027V77H190.739V68.024ZM194.099 72.616C194.099 71.992 194.195 71.4 194.403 70.84C194.611 70.296 194.899 69.816 195.267 69.4C195.635 69 196.099 68.664 196.627 68.424C197.155 68.184 197.731 68.072 198.387 68.072C199.043 68.072 199.651 68.184 200.179 68.424C200.707 68.664 201.155 69 201.539 69.4C201.907 69.816 202.195 70.296 202.403 70.84C202.611 71.4 202.707 71.992 202.707 72.616C202.707 73.24 202.611 73.832 202.403 74.392C202.195 74.952 201.907 75.432 201.539 75.832C201.155 76.248 200.707 76.568 200.179 76.808C199.651 77.048 199.043 77.16 198.387 77.16C197.731 77.16 197.155 77.048 196.627 76.808C196.099 76.568 195.635 76.248 195.267 75.832C194.899 75.432 194.611 74.952 194.403 74.392C194.195 73.832 194.099 73.24 194.099 72.616ZM202.435 72.616C202.435 72.024 202.339 71.464 202.147 70.936C201.955 70.424 201.683 69.976 201.331 69.592C200.979 69.208 200.563 68.904 200.067 68.68C199.571 68.456 199.011 68.344 198.387 68.344C197.779 68.344 197.235 68.456 196.739 68.68C196.243 68.904 195.811 69.208 195.475 69.592C195.123 69.976 194.851 70.424 194.659 70.936C194.467 71.464 194.371 72.024 194.371 72.616C194.371 73.208 194.467 73.768 194.659 74.296C194.835 74.824 195.107 75.272 195.459 75.656C195.795 76.04 196.227 76.344 196.723 76.552C197.219 76.776 197.763 76.888 198.387 76.888C199.011 76.888 199.587 76.776 200.083 76.552C200.579 76.344 200.995 76.04 201.347 75.656C201.699 75.272 201.971 74.824 202.163 74.296C202.339 73.768 202.435 73.208 202.435 72.616Z"/>
</mask>
<path d="M150.824 65.208C153.384 65.208 154.952 66.104 155.544 67.896H155.24C154.68 66.264 153.208 65.448 150.824 65.448C149.992 65.448 149.24 65.576 148.584 65.832C148.312 65.944 148.056 66.072 147.816 66.232C147.56 66.392 147.336 66.568 147.144 66.776C146.952 66.984 146.792 67.224 146.68 67.48C146.568 67.752 146.504 68.04 146.504 68.344C146.504 68.872 146.648 69.304 146.952 69.64C147.144 69.896 147.416 70.104 147.784 70.28C148.152 70.456 148.536 70.616 148.952 70.728C149.352 70.84 149.768 70.936 150.184 71.016C150.584 71.096 150.936 71.16 151.224 71.208C152.328 71.384 153.224 71.592 153.896 71.864C154.456 72.104 154.904 72.376 155.24 72.712C155.576 73.048 155.752 73.528 155.768 74.184C155.784 74.76 155.592 75.272 155.192 75.736C154.952 76.008 154.68 76.248 154.36 76.424C154.024 76.6 153.688 76.744 153.32 76.856C152.952 76.968 152.568 77.064 152.2 77.112C151.816 77.16 151.448 77.176 151.112 77.176C150.568 77.176 150.008 77.128 149.448 77.032C148.888 76.936 148.36 76.776 147.864 76.536C147.368 76.296 146.952 75.976 146.6 75.576C146.232 75.176 145.992 74.68 145.88 74.072H146.216C146.312 74.632 146.536 75.08 146.888 75.448C147.224 75.816 147.64 76.12 148.104 76.328C148.568 76.552 149.064 76.712 149.592 76.792C150.12 76.888 150.632 76.936 151.112 76.936C151.528 76.936 151.992 76.888 152.504 76.808C153.016 76.728 153.496 76.568 153.944 76.36C154.392 76.152 154.776 75.88 155.08 75.512C155.384 75.16 155.528 74.712 155.528 74.184C155.528 73.672 155.368 73.256 155.064 72.92C154.76 72.584 154.376 72.328 153.928 72.12C153.48 71.928 153 71.784 152.504 71.688C152.008 71.592 151.56 71.512 151.176 71.448C149.928 71.272 148.936 71.048 148.216 70.776C147.624 70.552 147.144 70.264 146.776 69.896C146.408 69.528 146.232 69.016 146.232 68.344C146.232 67.784 146.392 67.288 146.696 66.888C147 66.488 147.368 66.168 147.832 65.912C148.28 65.672 148.776 65.48 149.32 65.368C149.848 65.256 150.36 65.208 150.824 65.208ZM163.701 76.28L163.845 76.504C163.637 76.728 163.365 76.888 163.061 77.016C162.757 77.128 162.453 77.176 162.149 77.176C160.741 77.176 160.037 76.376 160.037 74.776V68.264H158.277V68.024H160.037V65.384H160.325V68.024H163.717V68.264H160.325V74.776C160.325 75.096 160.357 75.384 160.421 75.64C160.469 75.912 160.581 76.136 160.725 76.328C160.869 76.52 161.045 76.664 161.285 76.776C161.525 76.888 161.813 76.936 162.149 76.936C162.773 76.936 163.301 76.712 163.701 76.28ZM175.181 73.08V68.024H175.469L175.533 77.032H175.261L175.181 74.36C175.037 74.776 174.845 75.16 174.605 75.496C174.349 75.848 174.045 76.152 173.709 76.392C173.373 76.648 172.989 76.84 172.573 76.984C172.141 77.128 171.677 77.192 171.181 77.192C170.525 77.192 169.933 77.08 169.405 76.84C168.877 76.6 168.413 76.28 168.045 75.864C167.661 75.464 167.373 74.984 167.165 74.424C166.957 73.864 166.861 73.272 166.861 72.648V68.024H167.133V72.648C167.133 73.24 167.229 73.8 167.421 74.328C167.613 74.856 167.885 75.304 168.237 75.688C168.589 76.072 169.021 76.376 169.517 76.6C170.013 76.824 170.573 76.936 171.181 76.936C171.757 76.936 172.285 76.84 172.765 76.632C173.229 76.44 173.645 76.168 173.981 75.816C174.317 75.48 174.605 75.064 174.813 74.6C175.021 74.136 175.133 73.624 175.181 73.08ZM182.844 76.888C183.42 76.888 183.948 76.792 184.428 76.6C184.892 76.408 185.308 76.136 185.644 75.784C185.98 75.448 186.268 75.032 186.476 74.568C186.684 74.104 186.796 73.608 186.844 73.064V72.2C186.796 71.656 186.684 71.144 186.476 70.664C186.268 70.2 185.98 69.784 185.644 69.448C185.308 69.112 184.892 68.84 184.428 68.632C183.948 68.44 183.42 68.344 182.844 68.344C182.236 68.344 181.676 68.456 181.18 68.68C180.684 68.904 180.252 69.208 179.9 69.592C179.548 69.976 179.276 70.424 179.084 70.936C178.892 71.464 178.796 72.024 178.796 72.616C178.796 73.208 178.892 73.768 179.084 74.296C179.276 74.824 179.548 75.272 179.9 75.656C180.252 76.04 180.684 76.344 181.18 76.552C181.676 76.776 182.22 76.888 182.844 76.888ZM182.844 68.072C183.34 68.072 183.804 68.136 184.236 68.28C184.652 68.424 185.036 68.616 185.372 68.856C185.708 69.112 186.012 69.416 186.268 69.752C186.508 70.104 186.7 70.488 186.844 70.904V65.384H187.132V77H186.844V74.344C186.7 74.76 186.508 75.144 186.268 75.48C186.012 75.816 185.708 76.12 185.372 76.36C185.036 76.616 184.652 76.808 184.236 76.952C183.804 77.096 183.34 77.16 182.844 77.16C182.188 77.16 181.596 77.048 181.068 76.808C180.54 76.568 180.076 76.248 179.708 75.832C179.324 75.432 179.036 74.952 178.828 74.392C178.62 73.832 178.524 73.24 178.524 72.616C178.524 71.992 178.62 71.4 178.828 70.84C179.036 70.296 179.324 69.816 179.708 69.4C180.076 69 180.54 68.664 181.068 68.424C181.596 68.184 182.188 68.072 182.844 68.072ZM190.883 66.152C190.771 66.152 190.675 66.12 190.611 66.04C190.531 65.976 190.499 65.88 190.499 65.768C190.499 65.512 190.627 65.384 190.883 65.384C190.995 65.384 191.091 65.416 191.171 65.48C191.235 65.56 191.267 65.656 191.267 65.768C191.267 66.024 191.139 66.152 190.883 66.152ZM190.739 68.024H191.027V77H190.739V68.024ZM194.099 72.616C194.099 71.992 194.195 71.4 194.403 70.84C194.611 70.296 194.899 69.816 195.267 69.4C195.635 69 196.099 68.664 196.627 68.424C197.155 68.184 197.731 68.072 198.387 68.072C199.043 68.072 199.651 68.184 200.179 68.424C200.707 68.664 201.155 69 201.539 69.4C201.907 69.816 202.195 70.296 202.403 70.84C202.611 71.4 202.707 71.992 202.707 72.616C202.707 73.24 202.611 73.832 202.403 74.392C202.195 74.952 201.907 75.432 201.539 75.832C201.155 76.248 200.707 76.568 200.179 76.808C199.651 77.048 199.043 77.16 198.387 77.16C197.731 77.16 197.155 77.048 196.627 76.808C196.099 76.568 195.635 76.248 195.267 75.832C194.899 75.432 194.611 74.952 194.403 74.392C194.195 73.832 194.099 73.24 194.099 72.616ZM202.435 72.616C202.435 72.024 202.339 71.464 202.147 70.936C201.955 70.424 201.683 69.976 201.331 69.592C200.979 69.208 200.563 68.904 200.067 68.68C199.571 68.456 199.011 68.344 198.387 68.344C197.779 68.344 197.235 68.456 196.739 68.68C196.243 68.904 195.811 69.208 195.475 69.592C195.123 69.976 194.851 70.424 194.659 70.936C194.467 71.464 194.371 72.024 194.371 72.616C194.371 73.208 194.467 73.768 194.659 74.296C194.835 74.824 195.107 75.272 195.459 75.656C195.795 76.04 196.227 76.344 196.723 76.552C197.219 76.776 197.763 76.888 198.387 76.888C199.011 76.888 199.587 76.776 200.083 76.552C200.579 76.344 200.995 76.04 201.347 75.656C201.699 75.272 201.971 74.824 202.163 74.296C202.339 73.768 202.435 73.208 202.435 72.616Z" fill="black"/>
<path d="M155.544 67.896V68.496H156.374L156.114 67.7078L155.544 67.896ZM155.24 67.896L154.672 68.0907L154.812 68.496H155.24V67.896ZM148.584 65.832L148.366 65.273L148.356 65.2772L148.584 65.832ZM147.816 66.232L148.134 66.7408L148.141 66.7361L148.149 66.7312L147.816 66.232ZM147.144 66.776L146.703 66.369L146.703 66.369L147.144 66.776ZM146.68 67.48L146.13 67.2395L146.125 67.2515L146.68 67.48ZM146.952 69.64L147.432 69.28L147.415 69.2579L147.397 69.2375L146.952 69.64ZM148.952 70.728L149.114 70.1502L149.108 70.1486L148.952 70.728ZM150.184 71.016L150.302 70.4276L150.297 70.4268L150.184 71.016ZM151.224 71.208L151.125 71.7999L151.13 71.8005L151.224 71.208ZM153.896 71.864L154.132 71.3124L154.121 71.3078L153.896 71.864ZM155.24 72.712L155.664 72.2877L155.664 72.2877L155.24 72.712ZM155.768 74.184L155.168 74.1986L155.168 74.2007L155.768 74.184ZM155.192 75.736L155.642 76.133L155.646 76.1278L155.192 75.736ZM154.36 76.424L154.638 76.9556L154.649 76.9497L154.36 76.424ZM153.32 76.856L153.495 77.43L153.495 77.43L153.32 76.856ZM152.2 77.112L152.274 77.7074L152.278 77.707L152.2 77.112ZM149.448 77.032L149.549 76.4406L149.549 76.4406L149.448 77.032ZM147.864 76.536L147.603 77.0761L147.603 77.0761L147.864 76.536ZM146.6 75.576L147.051 75.1795L147.042 75.1698L146.6 75.576ZM145.88 74.072V73.472H145.159L145.29 74.1807L145.88 74.072ZM146.216 74.072L146.807 73.9706L146.722 73.472H146.216V74.072ZM146.888 75.448L147.331 75.0433L147.322 75.0333L146.888 75.448ZM148.104 76.328L148.365 75.7877L148.357 75.784L148.349 75.7805L148.104 76.328ZM149.592 76.792L149.699 76.2017L149.691 76.2001L149.682 76.1988L149.592 76.792ZM152.504 76.808L152.411 76.2152L152.411 76.2152L152.504 76.808ZM153.944 76.36L153.691 75.8158L153.691 75.8158L153.944 76.36ZM155.08 75.512L154.626 75.1197L154.617 75.1299L155.08 75.512ZM155.064 72.92L155.509 72.5175L155.509 72.5175L155.064 72.92ZM153.928 72.12L154.181 71.5758L154.173 71.572L154.164 71.5685L153.928 72.12ZM151.176 71.448L151.275 70.8562L151.267 70.8549L151.26 70.8539L151.176 71.448ZM148.216 70.776L148.004 71.3372L148.004 71.3373L148.216 70.776ZM146.776 69.896L147.2 69.4717L147.2 69.4717L146.776 69.896ZM146.696 66.888L147.174 67.251L147.174 67.251L146.696 66.888ZM147.832 65.912L147.549 65.3831L147.542 65.3867L147.832 65.912ZM149.32 65.368L149.441 65.9557L149.445 65.9549L149.32 65.368ZM150.824 65.808C152.041 65.808 152.959 66.0219 153.625 66.4013C154.276 66.7722 154.723 67.3221 154.974 68.0842L156.114 67.7078C155.773 66.6779 155.14 65.8838 154.219 65.3587C153.313 64.8421 152.167 64.608 150.824 64.608V65.808ZM155.544 67.296H155.24V68.496H155.544V67.296ZM155.808 67.7013C155.481 66.7487 154.876 66.0172 154.007 65.5352C153.152 65.0616 152.078 64.848 150.824 64.848V66.048C151.954 66.048 152.808 66.2424 153.425 66.5848C154.028 66.9188 154.439 67.4113 154.672 68.0907L155.808 67.7013ZM150.824 64.848C149.931 64.848 149.103 64.9852 148.366 65.2731L148.802 66.3909C149.377 66.1668 150.053 66.048 150.824 66.048V64.848ZM148.356 65.2772C148.058 65.3999 147.764 65.5453 147.483 65.7328L148.149 66.7312C148.348 66.5987 148.566 66.4881 148.812 66.3868L148.356 65.2772ZM147.498 65.7232C147.208 65.9047 146.939 66.1133 146.703 66.369L147.585 67.183C147.733 67.0227 147.912 66.8793 148.134 66.7408L147.498 65.7232ZM146.703 66.369C146.469 66.623 146.271 66.9186 146.13 67.2395L147.23 67.7205C147.313 67.5294 147.435 67.345 147.585 67.183L146.703 66.369ZM146.125 67.2515C145.987 67.5882 145.904 67.9536 145.904 68.344H147.104C147.104 68.1264 147.149 67.9158 147.235 67.7084L146.125 67.2515ZM145.904 68.344C145.904 68.9869 146.083 69.5735 146.507 70.0425L147.397 69.2375C147.213 69.0345 147.104 68.7571 147.104 68.344H145.904ZM146.472 70C146.737 70.3529 147.095 70.6156 147.525 70.8213L148.043 69.7387C147.737 69.5924 147.551 69.4391 147.432 69.28L146.472 70ZM147.525 70.8213C147.911 71.0059 148.332 71.1823 148.796 71.3074L149.108 70.1486C148.74 70.0497 148.393 69.9061 148.043 69.7387L147.525 70.8213ZM148.79 71.3058C149.208 71.4228 149.64 71.5225 150.071 71.6052L150.297 70.4268C149.896 70.3495 149.496 70.2572 149.114 70.1502L148.79 71.3058ZM150.066 71.6043C150.472 71.6855 150.831 71.7507 151.125 71.7998L151.323 70.6162C151.041 70.5693 150.696 70.5065 150.302 70.4277L150.066 71.6043ZM151.13 71.8005C152.22 71.9743 153.062 72.1739 153.671 72.4202L154.121 71.3078C153.386 71.0101 152.436 70.7937 151.318 70.6155L151.13 71.8005ZM153.66 72.4155C154.179 72.6383 154.553 72.8733 154.816 73.1363L155.664 72.2877C155.255 71.8787 154.733 71.5697 154.132 71.3125L153.66 72.4155ZM154.816 73.1363C155.01 73.3302 155.155 73.6424 155.168 74.1986L156.368 74.1694C156.349 73.4136 156.142 72.7658 155.664 72.2877L154.816 73.1363ZM155.168 74.2007C155.18 74.6151 155.048 74.984 154.738 75.3442L155.646 76.1278C156.136 75.56 156.388 74.9049 156.368 74.1673L155.168 74.2007ZM154.742 75.339C154.534 75.5746 154.315 75.7642 154.071 75.8983L154.649 76.9497C155.045 76.7318 155.37 76.4414 155.642 76.133L154.742 75.339ZM154.082 75.8925C153.773 76.054 153.472 76.1826 153.145 76.282L153.495 77.43C153.904 77.3054 154.275 77.146 154.638 76.9555L154.082 75.8925ZM153.145 76.282C152.794 76.3888 152.445 76.4749 152.122 76.517L152.278 77.707C152.691 77.6531 153.11 77.5472 153.495 77.43L153.145 76.282ZM152.126 76.5166C151.772 76.5609 151.429 76.576 151.112 76.576V77.776C151.467 77.776 151.86 77.7591 152.274 77.7074L152.126 76.5166ZM151.112 76.576C150.603 76.576 150.077 76.5311 149.549 76.4406L149.347 77.6234C149.939 77.7249 150.533 77.776 151.112 77.776V76.576ZM149.549 76.4406C149.037 76.3529 148.564 76.2083 148.125 75.9959L147.603 77.0761C148.156 77.3437 148.739 77.5191 149.347 77.6234L149.549 76.4406ZM148.125 75.9959C147.702 75.7911 147.35 75.5203 147.05 75.1796L146.15 75.9724C146.554 76.4317 147.034 76.8009 147.603 77.0761L148.125 75.9959ZM147.042 75.1698C146.759 74.8622 146.564 74.4731 146.47 73.9633L145.29 74.1807C145.42 74.8869 145.705 75.4898 146.158 75.9822L147.042 75.1698ZM145.88 74.672H146.216V73.472H145.88V74.672ZM145.625 74.1734C145.739 74.8429 146.014 75.4025 146.454 75.8627L147.322 75.0333C147.058 74.7575 146.885 74.4211 146.807 73.9706L145.625 74.1734ZM146.445 75.8526C146.835 76.2803 147.318 76.6334 147.859 76.8755L148.349 75.7805C147.962 75.6066 147.613 75.3517 147.331 75.0434L146.445 75.8526ZM147.843 76.8683C148.358 77.1167 148.911 77.2957 149.502 77.3852L149.682 76.1988C149.217 76.1283 148.778 75.9873 148.365 75.7877L147.843 76.8683ZM149.485 77.3823C150.045 77.4841 150.593 77.536 151.112 77.536V76.336C150.671 76.336 150.195 76.2919 149.699 76.2017L149.485 77.3823ZM151.112 77.536C151.571 77.536 152.069 77.4833 152.597 77.4008L152.411 76.2152C151.915 76.2927 151.485 76.336 151.112 76.336V77.536ZM152.597 77.4008C153.173 77.3107 153.707 77.1316 154.197 76.9042L153.691 75.8158C153.285 76.0044 152.859 76.1453 152.411 76.2152L152.597 77.4008ZM154.197 76.9042C154.708 76.6667 155.17 76.3446 155.543 75.8941L154.617 75.1299C154.382 75.4154 154.076 75.6373 153.691 75.8158L154.197 76.9042ZM155.534 75.9042C155.951 75.422 156.128 74.8253 156.128 74.184H154.928C154.928 74.5987 154.817 74.898 154.626 75.1198L155.534 75.9042ZM156.128 74.184C156.128 73.5338 155.92 72.9713 155.509 72.5175L154.619 73.3225C154.816 73.5407 154.928 73.8102 154.928 74.184H156.128ZM155.509 72.5175C155.137 72.1061 154.68 71.8074 154.181 71.5758L153.675 72.6642C154.072 72.8486 154.383 73.0619 154.619 73.3225L155.509 72.5175ZM154.164 71.5685C153.674 71.3583 153.153 71.2024 152.618 71.0989L152.39 72.2771C152.847 72.3656 153.286 72.4977 153.692 72.6715L154.164 71.5685ZM152.618 71.0989C152.117 71.002 151.664 70.921 151.275 70.8562L151.077 72.0398C151.456 72.103 151.899 72.182 152.39 72.2771L152.618 71.0989ZM151.26 70.8539C150.031 70.6806 149.088 70.4642 148.428 70.2147L148.004 71.3373C148.784 71.6318 149.825 71.8634 151.092 72.0421L151.26 70.8539ZM148.428 70.2148C147.894 70.0126 147.493 69.7649 147.2 69.4717L146.352 70.3203C146.795 70.7631 147.354 71.0914 148.004 71.3372L148.428 70.2148ZM147.2 69.4717C146.977 69.2488 146.832 68.9097 146.832 68.344H145.632C145.632 69.1223 145.839 69.8072 146.352 70.3203L147.2 69.4717ZM146.832 68.344C146.832 67.9017 146.957 67.5365 147.174 67.251L146.218 66.5249C145.827 67.0395 145.632 67.6663 145.632 68.344H146.832ZM147.174 67.251C147.426 66.9185 147.73 66.6534 148.122 66.4373L147.542 65.3867C147.006 65.6826 146.574 66.0575 146.218 66.5249L147.174 67.251ZM148.115 66.4409C148.518 66.2251 148.96 66.0548 149.441 65.9557L149.199 64.7803C148.592 64.9052 148.042 65.1189 147.549 65.3831L148.115 66.4409ZM149.445 65.9549C149.93 65.8519 150.4 65.808 150.824 65.808V64.608C150.32 64.608 149.766 64.6601 149.195 64.7811L149.445 65.9549ZM163.701 76.28L164.206 75.9555L163.787 75.3041L163.261 75.8724L163.701 76.28ZM163.845 76.504L164.285 76.9123L164.601 76.5711L164.35 76.1795L163.845 76.504ZM163.061 77.016L163.268 77.579L163.281 77.5743L163.294 77.569L163.061 77.016ZM160.037 68.264H160.637V67.664H160.037V68.264ZM158.277 68.264H157.677V68.864H158.277V68.264ZM158.277 68.024V67.424H157.677V68.024H158.277ZM160.037 68.024V68.624H160.637V68.024H160.037ZM160.037 65.384V64.784H159.437V65.384H160.037ZM160.325 65.384H160.925V64.784H160.325V65.384ZM160.325 68.024H159.725V68.624H160.325V68.024ZM163.717 68.024H164.317V67.424H163.717V68.024ZM163.717 68.264V68.864H164.317V68.264H163.717ZM160.325 68.264V67.664H159.725V68.264H160.325ZM160.421 75.64L161.012 75.5357L161.008 75.5149L161.003 75.4945L160.421 75.64ZM160.725 76.328L160.245 76.688L160.245 76.688L160.725 76.328ZM161.285 76.776L161.031 77.3197L161.031 77.3197L161.285 76.776ZM163.196 76.6045L163.34 76.8285L164.35 76.1795L164.206 75.9555L163.196 76.6045ZM163.405 76.0957C163.277 76.2338 163.09 76.3527 162.828 76.463L163.294 77.569C163.64 77.4233 163.997 77.2222 164.285 76.9123L163.405 76.0957ZM162.853 76.453C162.621 76.5386 162.388 76.576 162.149 76.576V77.776C162.518 77.776 162.893 77.7174 163.268 77.579L162.853 76.453ZM162.149 76.576C161.559 76.576 161.22 76.4119 161.015 76.1796C160.798 75.9327 160.637 75.501 160.637 74.776H159.437C159.437 75.651 159.628 76.4193 160.114 76.9724C160.614 77.5401 161.331 77.776 162.149 77.776V76.576ZM160.637 74.776V68.264H159.437V74.776H160.637ZM160.037 67.664H158.277V68.864H160.037V67.664ZM158.877 68.264V68.024H157.677V68.264H158.877ZM158.277 68.624H160.037V67.424H158.277V68.624ZM160.637 68.024V65.384H159.437V68.024H160.637ZM160.037 65.984H160.325V64.784H160.037V65.984ZM159.725 65.384V68.024H160.925V65.384H159.725ZM160.325 68.624H163.717V67.424H160.325V68.624ZM163.117 68.024V68.264H164.317V68.024H163.117ZM163.717 67.664H160.325V68.864H163.717V67.664ZM159.725 68.264V74.776H160.925V68.264H159.725ZM159.725 74.776C159.725 75.1351 159.761 75.4731 159.839 75.7855L161.003 75.4945C160.953 75.2949 160.925 75.0569 160.925 74.776H159.725ZM159.83 75.7443C159.897 76.1237 160.054 76.4335 160.245 76.688L161.205 75.968C161.108 75.8385 161.041 75.7003 161.012 75.5357L159.83 75.7443ZM160.245 76.688C160.45 76.9619 160.705 77.1676 161.031 77.3197L161.539 76.2323C161.385 76.1604 161.287 76.0781 161.205 75.968L160.245 76.688ZM161.031 77.3197C161.377 77.4813 161.761 77.536 162.149 77.536V76.336C161.865 76.336 161.672 76.2947 161.539 76.2323L161.031 77.3197ZM162.149 77.536C162.93 77.536 163.621 77.2497 164.141 76.6876L163.261 75.8724C162.981 76.1743 162.616 76.336 162.149 76.336V77.536ZM175.181 73.08L175.779 73.1327L175.781 73.1064V73.08H175.181ZM175.181 68.024V67.424H174.581V68.024H175.181ZM175.469 68.024L176.069 68.0197L176.065 67.424H175.469V68.024ZM175.533 77.032V77.632H176.138L176.133 77.0277L175.533 77.032ZM175.261 77.032L174.662 77.05L174.679 77.632H175.261V77.032ZM175.181 74.36L175.781 74.342L174.614 74.1637L175.181 74.36ZM174.605 75.496L175.091 75.8489L175.093 75.8447L174.605 75.496ZM173.709 76.392L173.361 75.9038L173.353 75.9091L173.346 75.9147L173.709 76.392ZM172.573 76.984L172.763 77.5532L172.77 77.551L172.573 76.984ZM169.405 76.84L169.654 76.2938L169.654 76.2938L169.405 76.84ZM168.045 75.864L168.495 75.4665L168.487 75.4573L168.478 75.4485L168.045 75.864ZM167.165 74.424L166.603 74.6329L166.603 74.6329L167.165 74.424ZM166.861 68.024V67.424H166.261V68.024H166.861ZM167.133 68.024H167.733V67.424H167.133V68.024ZM167.421 74.328L167.985 74.123L167.985 74.123L167.421 74.328ZM168.237 75.688L167.795 76.0934L167.795 76.0934L168.237 75.688ZM169.517 76.6L169.764 76.0532L169.764 76.0532L169.517 76.6ZM172.765 76.632L172.536 76.0775L172.527 76.0815L172.765 76.632ZM173.981 75.816L173.557 75.3916L173.547 75.4017L173.981 75.816ZM174.813 74.6L175.361 74.8454L175.361 74.8454L174.813 74.6ZM175.781 73.08V68.024H174.581V73.08H175.781ZM175.181 68.624H175.469V67.424H175.181V68.624ZM174.869 68.0283L174.933 77.0363L176.133 77.0277L176.069 68.0197L174.869 68.0283ZM175.533 76.432H175.261V77.632H175.533V76.432ZM175.861 77.014L175.781 74.342L174.582 74.378L174.662 77.05L175.861 77.014ZM174.614 74.1637C174.487 74.5324 174.32 74.8637 174.117 75.1473L175.093 75.8447C175.371 75.4563 175.588 75.0196 175.748 74.5563L174.614 74.1637ZM174.12 75.1431C173.9 75.4458 173.641 75.7032 173.361 75.9038L174.058 76.8802C174.449 76.6008 174.799 76.2502 175.09 75.8489L174.12 75.1431ZM173.346 75.9147C173.07 76.1247 172.746 76.2894 172.377 76.417L172.77 77.551C173.233 77.3906 173.676 77.1713 174.073 76.8693L173.346 75.9147ZM172.384 76.4148C172.024 76.5346 171.626 76.592 171.181 76.592V77.792C171.729 77.792 172.259 77.7214 172.763 77.5532L172.384 76.4148ZM171.181 76.592C170.594 76.592 170.089 76.4919 169.654 76.2938L169.157 77.3862C169.777 77.6681 170.457 77.792 171.181 77.792V76.592ZM169.654 76.2938C169.188 76.082 168.797 75.8083 168.495 75.4665L167.596 76.2615C168.029 76.7517 168.567 77.118 169.157 77.3862L169.654 76.2938ZM168.478 75.4485C168.159 75.1156 167.911 74.709 167.728 74.2151L166.603 74.6329C166.835 75.259 167.164 75.8124 167.612 76.2795L168.478 75.4485ZM167.728 74.2151C167.547 73.7297 167.461 73.2095 167.461 72.648H166.261C166.261 73.3345 166.367 73.9983 166.603 74.6329L167.728 74.2151ZM167.461 72.648V68.024H166.261V72.648H167.461ZM166.861 68.624H167.133V67.424H166.861V68.624ZM166.533 68.024V72.648H167.733V68.024H166.533ZM166.533 72.648C166.533 73.3061 166.64 73.9359 166.857 74.533L167.985 74.123C167.818 73.6641 167.733 73.1739 167.733 72.648H166.533ZM166.857 74.533C167.075 75.1324 167.388 75.6491 167.795 76.0934L168.68 75.2826C168.383 74.9589 168.151 74.5796 167.985 74.123L166.857 74.533ZM167.795 76.0934C168.207 76.5426 168.707 76.8925 169.27 77.1468L169.764 76.0532C169.335 75.8595 168.972 75.6014 168.68 75.2826L167.795 76.0934ZM169.27 77.1468C169.854 77.4102 170.499 77.536 171.181 77.536V76.336C170.647 76.336 170.173 76.2378 169.764 76.0532L169.27 77.1468ZM171.181 77.536C171.825 77.536 172.436 77.4285 173.004 77.1825L172.527 76.0815C172.134 76.2515 171.69 76.336 171.181 76.336V77.536ZM172.995 77.1864C173.526 76.9665 174.015 76.6499 174.415 76.2303L173.547 75.4017C173.276 75.6861 172.932 75.9135 172.536 76.0776L172.995 77.1864ZM174.406 76.2403C174.794 75.8515 175.124 75.3746 175.361 74.8454L174.266 74.3546C174.087 74.7534 173.84 75.1085 173.557 75.3917L174.406 76.2403ZM175.361 74.8454C175.603 74.3047 175.727 73.7237 175.779 73.1327L174.584 73.0273C174.54 73.5243 174.439 73.9673 174.266 74.3546L175.361 74.8454ZM184.428 76.6L184.651 77.1571L184.657 77.1544L184.428 76.6ZM185.644 75.784L185.219 75.3596L185.21 75.3697L185.644 75.784ZM186.476 74.568L187.023 74.8134L187.023 74.8134L186.476 74.568ZM186.844 73.064L187.441 73.1167L187.444 73.0904V73.064H186.844ZM186.844 72.2H187.444V72.1736L187.441 72.1473L186.844 72.2ZM186.476 70.664L187.026 70.4254L187.023 70.4186L186.476 70.664ZM185.644 69.448L185.219 69.8723L185.219 69.8723L185.644 69.448ZM184.428 68.632L184.673 68.0845L184.662 68.0795L184.651 68.0749L184.428 68.632ZM181.18 68.68L181.427 69.2268L181.427 69.2268L181.18 68.68ZM179.9 69.592L179.457 69.1866L179.457 69.1866L179.9 69.592ZM179.084 70.936L178.522 70.7253L178.52 70.731L179.084 70.936ZM179.084 74.296L179.648 74.091L179.648 74.091L179.084 74.296ZM179.9 75.656L180.342 75.2506L180.342 75.2506L179.9 75.656ZM181.18 76.552L181.427 76.0052L181.419 76.0018L181.412 75.9987L181.18 76.552ZM184.236 68.28L184.432 67.713L184.425 67.7108L184.236 68.28ZM185.372 68.856L185.735 68.3787L185.728 68.3731L185.72 68.3678L185.372 68.856ZM186.268 69.752L186.763 69.414L186.755 69.4009L186.745 69.3884L186.268 69.752ZM186.844 70.904L186.277 71.1003L187.444 70.904H186.844ZM186.844 65.384V64.784H186.244V65.384H186.844ZM187.132 65.384H187.732V64.784H187.132V65.384ZM187.132 77V77.6H187.732V77H187.132ZM186.844 77H186.244V77.6H186.844V77ZM186.844 74.344H187.444L186.277 74.1477L186.844 74.344ZM186.268 75.48L186.745 75.8436L186.751 75.8363L186.756 75.8287L186.268 75.48ZM185.372 76.36L185.023 75.8718L185.015 75.8771L185.008 75.8827L185.372 76.36ZM184.236 76.952L184.425 77.5212L184.432 77.519L184.236 76.952ZM181.068 76.808L181.316 76.2618L181.316 76.2618L181.068 76.808ZM179.708 75.832L180.157 75.4345L180.149 75.4253L180.141 75.4165L179.708 75.832ZM178.828 74.392L178.265 74.6009L178.265 74.6009L178.828 74.392ZM178.828 70.84L178.267 70.6257L178.265 70.6311L178.828 70.84ZM179.708 69.4L180.149 69.807L180.149 69.8062L179.708 69.4ZM181.068 68.424L181.316 68.9702L181.316 68.9702L181.068 68.424ZM182.844 77.488C183.487 77.488 184.092 77.3805 184.651 77.1571L184.205 76.0429C183.803 76.2035 183.352 76.288 182.844 76.288V77.488ZM184.657 77.1544C185.189 76.9345 185.677 76.6179 186.078 76.1983L185.21 75.3697C184.938 75.6541 184.595 75.8815 184.198 76.0456L184.657 77.1544ZM186.068 76.2083C186.457 75.8195 186.786 75.3426 187.023 74.8134L185.928 74.3226C185.749 74.7214 185.503 75.0765 185.219 75.3597L186.068 76.2083ZM187.023 74.8134C187.265 74.2751 187.389 73.7109 187.441 73.1167L186.246 73.0113C186.203 73.5051 186.103 73.9329 185.928 74.3226L187.023 74.8134ZM187.444 73.064V72.2H186.244V73.064H187.444ZM187.441 72.1473C187.389 71.5547 187.265 70.9772 187.026 70.4254L185.925 70.9026C186.102 71.3108 186.202 71.7573 186.246 72.2527L187.441 72.1473ZM187.023 70.4186C186.786 69.8894 186.457 69.4125 186.068 69.0237L185.219 69.8723C185.503 70.1555 185.749 70.5106 185.928 70.9094L187.023 70.4186ZM186.068 69.0237C185.672 68.6276 185.192 68.317 184.673 68.0845L184.182 69.1795C184.592 69.363 184.944 69.5964 185.219 69.8723L186.068 69.0237ZM184.651 68.0749C184.092 67.8515 183.487 67.744 182.844 67.744V68.944C183.352 68.944 183.803 69.0285 184.205 69.1891L184.651 68.0749ZM182.844 67.744C182.162 67.744 181.516 67.8698 180.933 68.1332L181.427 69.2268C181.835 69.0422 182.31 68.944 182.844 68.944V67.744ZM180.933 68.1332C180.37 68.3875 179.869 68.7374 179.457 69.1866L180.342 69.9974C180.634 69.6786 180.998 69.4205 181.427 69.2268L180.933 68.1332ZM179.457 69.1866C179.051 69.63 178.74 70.145 178.522 70.7253L179.646 71.1467C179.812 70.703 180.045 70.322 180.342 69.9974L179.457 69.1866ZM178.52 70.731C178.303 71.3281 178.196 71.9579 178.196 72.616H179.396C179.396 72.0901 179.481 71.5999 179.648 71.141L178.52 70.731ZM178.196 72.616C178.196 73.2741 178.303 73.9039 178.52 74.501L179.648 74.091C179.481 73.6321 179.396 73.1419 179.396 72.616H178.196ZM178.52 74.501C178.738 75.1004 179.05 75.6171 179.457 76.0614L180.342 75.2506C180.045 74.9269 179.814 74.5476 179.648 74.091L178.52 74.501ZM179.457 76.0614C179.869 76.5103 180.373 76.8643 180.948 77.1053L181.412 75.9987C180.995 75.8237 180.635 75.5697 180.342 75.2506L179.457 76.0614ZM180.933 77.0988C181.515 77.3618 182.145 77.488 182.844 77.488V76.288C182.295 76.288 181.836 76.1902 181.427 76.0052L180.933 77.0988ZM182.844 68.672C183.288 68.672 183.686 68.7294 184.046 68.8492L184.425 67.7108C183.921 67.5426 183.391 67.472 182.844 67.472V68.672ZM184.039 68.847C184.408 68.9746 184.739 69.1417 185.023 69.3442L185.72 68.3678C185.332 68.0903 184.895 67.8734 184.432 67.713L184.039 68.847ZM185.008 69.3333C185.301 69.5566 185.567 69.8224 185.79 70.1156L186.745 69.3884C186.456 69.0096 186.114 68.6674 185.735 68.3787L185.008 69.3333ZM185.772 70.09C185.981 70.3967 186.15 70.7328 186.277 71.1003L187.411 70.7077C187.25 70.2432 187.034 69.8113 186.763 69.414L185.772 70.09ZM187.444 70.904V65.384H186.244V70.904H187.444ZM186.844 65.984H187.132V64.784H186.844V65.984ZM186.532 65.384V77H187.732V65.384H186.532ZM187.132 76.4H186.844V77.6H187.132V76.4ZM187.444 77V74.344H186.244V77H187.444ZM186.277 74.1477C186.149 74.5164 185.982 74.8477 185.78 75.1313L186.756 75.8287C187.033 75.4403 187.25 75.0036 187.411 74.5403L186.277 74.1477ZM185.79 75.1164C185.566 75.4104 185.305 75.6706 185.023 75.8718L185.72 76.8482C186.111 76.5694 186.457 76.2216 186.745 75.8436L185.79 75.1164ZM185.008 75.8827C184.733 76.0927 184.408 76.2574 184.039 76.385L184.432 77.519C184.895 77.3586 185.339 77.1393 185.735 76.8373L185.008 75.8827ZM184.046 76.3828C183.686 76.5026 183.288 76.56 182.844 76.56V77.76C183.391 77.76 183.921 77.6894 184.425 77.5212L184.046 76.3828ZM182.844 76.56C182.256 76.56 181.752 76.4599 181.316 76.2618L180.819 77.3542C181.44 77.6361 182.119 77.76 182.844 77.76V76.56ZM181.316 76.2618C180.85 76.05 180.46 75.7763 180.157 75.4345L179.258 76.2295C179.692 76.7197 180.229 77.086 180.819 77.3542L181.316 76.2618ZM180.141 75.4165C179.821 75.0836 179.574 74.677 179.39 74.1831L178.265 74.6009C178.498 75.227 178.826 75.7804 179.275 76.2475L180.141 75.4165ZM179.39 74.1831C179.21 73.6977 179.124 73.1774 179.124 72.616H177.924C177.924 73.3025 178.03 73.9663 178.265 74.6009L179.39 74.1831ZM179.124 72.616C179.124 72.0545 179.21 71.5343 179.39 71.0489L178.265 70.6311C178.03 71.2657 177.924 71.9294 177.924 72.616H179.124ZM179.388 71.0543C179.572 70.5747 179.821 70.1618 180.149 69.807L179.267 68.993C178.826 69.4702 178.5 70.0173 178.267 70.6257L179.388 71.0543ZM180.149 69.8062C180.461 69.4673 180.859 69.1781 181.316 68.9702L180.819 67.8778C180.221 68.1499 179.69 68.5327 179.266 68.9938L180.149 69.8062ZM181.316 68.9702C181.752 68.7721 182.256 68.672 182.844 68.672V67.472C182.119 67.472 181.44 67.5959 180.819 67.8778L181.316 68.9702ZM190.611 66.04L191.079 65.6652L191.038 65.6131L190.986 65.5715L190.611 66.04ZM191.171 65.48L191.639 65.1052L191.598 65.0531L191.546 65.0115L191.171 65.48ZM190.739 68.024V67.424H190.139V68.024H190.739ZM191.027 68.024H191.627V67.424H191.027V68.024ZM191.027 77V77.6H191.627V77H191.027ZM190.739 77H190.139V77.6H190.739V77ZM190.883 65.552C190.883 65.552 190.889 65.552 190.9 65.5538C190.91 65.5555 190.927 65.5593 190.947 65.5673C190.992 65.5847 191.041 65.617 191.079 65.6652L190.142 66.4148C190.358 66.6851 190.66 66.752 190.883 66.752V65.552ZM190.986 65.5715C191.034 65.61 191.066 65.6588 191.083 65.7034C191.091 65.7237 191.095 65.7403 191.097 65.751C191.099 65.7617 191.099 65.7677 191.099 65.768H189.899C189.899 65.9905 189.966 66.2923 190.236 66.5085L190.986 65.5715ZM191.099 65.768C191.099 65.7325 191.107 65.8161 191.019 65.9043C190.931 65.9925 190.847 65.984 190.883 65.984V64.784C190.662 64.784 190.387 64.8395 190.17 65.0557C189.954 65.2719 189.899 65.5475 189.899 65.768H191.099ZM190.883 65.984C190.881 65.984 190.868 65.9837 190.849 65.9772C190.829 65.9705 190.811 65.9602 190.796 65.9485L191.546 65.0115C191.349 64.8543 191.117 64.784 190.883 64.784V65.984ZM190.702 65.8548C190.691 65.8402 190.68 65.8217 190.674 65.8017C190.667 65.7824 190.667 65.7697 190.667 65.768H191.867C191.867 65.5333 191.796 65.3017 191.639 65.1052L190.702 65.8548ZM190.667 65.768C190.667 65.8035 190.658 65.7199 190.746 65.6317C190.835 65.5435 190.918 65.552 190.883 65.552V66.752C191.103 66.752 191.379 66.6965 191.595 66.4803C191.811 66.2641 191.867 65.9885 191.867 65.768H190.667ZM190.739 68.624H191.027V67.424H190.739V68.624ZM190.427 68.024V77H191.627V68.024H190.427ZM191.027 76.4H190.739V77.6H191.027V76.4ZM191.339 77V68.024H190.139V77H191.339ZM194.403 70.84L193.842 70.6257L193.84 70.6311L194.403 70.84ZM195.267 69.4L194.825 68.9937L194.817 69.0025L195.267 69.4ZM196.627 68.424L196.875 68.9702L196.875 68.9702L196.627 68.424ZM200.179 68.424L200.427 67.8778L200.427 67.8778L200.179 68.424ZM201.539 69.4L201.988 69.0025L201.98 68.9933L201.972 68.9845L201.539 69.4ZM202.403 70.84L202.965 70.6311L202.963 70.6257L202.403 70.84ZM202.403 74.392L201.84 74.1831L201.84 74.1831L202.403 74.392ZM201.539 75.832L201.98 76.239L201.98 76.2382L201.539 75.832ZM200.179 76.808L200.427 77.3542L200.427 77.3542L200.179 76.808ZM196.627 76.808L196.875 76.2618L196.875 76.2618L196.627 76.808ZM195.267 75.832L195.716 75.4344L195.708 75.4258L195.267 75.832ZM194.403 74.392L193.84 74.6009L193.84 74.6009L194.403 74.392ZM202.147 70.936L202.711 70.7309L202.709 70.7253L202.147 70.936ZM201.331 69.592L201.773 69.1866L201.773 69.1866L201.331 69.592ZM200.067 68.68L200.314 68.1332L200.314 68.1332L200.067 68.68ZM195.475 69.592L195.917 69.9975L195.926 69.9871L195.475 69.592ZM194.659 70.936L194.097 70.7253L194.095 70.731L194.659 70.936ZM194.659 74.296L195.228 74.1063L195.225 74.0986L195.223 74.091L194.659 74.296ZM195.459 75.656L195.91 75.2608L195.901 75.2506L195.459 75.656ZM196.723 76.552L196.97 76.0052L196.962 76.0018L196.955 75.9987L196.723 76.552ZM200.083 76.552L199.851 75.9987L199.843 76.0018L199.836 76.0052L200.083 76.552ZM201.347 75.656L200.904 75.2506L200.904 75.2506L201.347 75.656ZM202.163 74.296L202.727 74.501L202.729 74.4934L202.732 74.4857L202.163 74.296ZM194.699 72.616C194.699 72.0545 194.785 71.5343 194.965 71.0489L193.84 70.6311C193.605 71.2657 193.499 71.9294 193.499 72.616H194.699ZM194.963 71.0543C195.147 70.5742 195.398 70.157 195.716 69.7975L194.817 69.0025C194.399 69.475 194.075 70.0178 193.842 70.6257L194.963 71.0543ZM195.708 69.8062C196.02 69.4673 196.418 69.1781 196.875 68.9702L196.378 67.8778C195.78 68.1499 195.249 68.5327 194.825 68.9938L195.708 69.8062ZM196.875 68.9702C197.313 68.7713 197.802 68.672 198.387 68.672V67.472C197.66 67.472 196.997 67.5967 196.378 67.8778L196.875 68.9702ZM198.387 68.672C198.976 68.672 199.496 68.7728 199.93 68.9702L200.427 67.8778C199.805 67.5952 199.109 67.472 198.387 67.472V68.672ZM199.93 68.9702C200.381 69.175 200.768 69.4634 201.106 69.8155L201.972 68.9845C201.542 68.5366 201.033 68.153 200.427 67.8778L199.93 68.9702ZM201.089 69.7975C201.407 70.157 201.659 70.5742 201.842 71.0543L202.963 70.6257C202.731 70.0178 202.406 69.475 201.988 69.0025L201.089 69.7975ZM201.84 71.0489C202.021 71.5343 202.107 72.0545 202.107 72.616H203.307C203.307 71.9294 203.201 71.2657 202.965 70.6311L201.84 71.0489ZM202.107 72.616C202.107 73.1774 202.021 73.6977 201.84 74.1831L202.965 74.6009C203.201 73.9663 203.307 73.3026 203.307 72.616H202.107ZM201.84 74.1831C201.657 74.6773 201.407 75.0885 201.097 75.4258L201.98 76.2382C202.406 75.7755 202.733 75.2267 202.965 74.6009L201.84 74.1831ZM201.098 75.425C200.77 75.7798 200.389 76.0535 199.93 76.2618L200.427 77.3542C201.025 77.0825 201.539 76.7162 201.98 76.239L201.098 75.425ZM199.93 76.2618C199.496 76.4592 198.976 76.56 198.387 76.56V77.76C199.109 77.76 199.805 77.6368 200.427 77.3542L199.93 76.2618ZM198.387 76.56C197.802 76.56 197.313 76.4607 196.875 76.2618L196.378 77.3542C196.997 77.6353 197.66 77.76 198.387 77.76V76.56ZM196.875 76.2618C196.409 76.05 196.019 75.7763 195.716 75.4345L194.817 76.2295C195.251 76.7197 195.788 77.086 196.378 77.3542L196.875 76.2618ZM195.708 75.4258C195.398 75.0885 195.149 74.6773 194.965 74.1831L193.84 74.6009C194.073 75.2267 194.399 75.7755 194.825 76.2382L195.708 75.4258ZM194.965 74.1831C194.785 73.6977 194.699 73.1774 194.699 72.616H193.499C193.499 73.3025 193.605 73.9663 193.84 74.6009L194.965 74.1831ZM203.035 72.616C203.035 71.9579 202.928 71.3281 202.711 70.731L201.583 71.141C201.75 71.5999 201.835 72.0901 201.835 72.616H203.035ZM202.709 70.7253C202.491 70.145 202.18 69.63 201.773 69.1866L200.888 69.9974C201.186 70.322 201.419 70.703 201.585 71.1467L202.709 70.7253ZM201.773 69.1866C201.366 68.7427 200.884 68.3906 200.314 68.1332L199.82 69.2268C200.242 69.4174 200.591 69.6733 200.888 69.9974L201.773 69.1866ZM200.314 68.1332C199.73 67.8693 199.083 67.744 198.387 67.744V68.944C198.938 68.944 199.412 69.0427 199.82 69.2268L200.314 68.1332ZM198.387 67.744C197.702 67.744 197.073 67.8707 196.492 68.1332L196.986 69.2268C197.396 69.0413 197.855 68.944 198.387 68.944V67.744ZM196.492 68.1332C195.93 68.3869 195.424 68.7387 195.023 69.1969L195.926 69.9871C196.197 69.6773 196.556 69.4211 196.986 69.2268L196.492 68.1332ZM195.032 69.1866C194.626 69.63 194.315 70.145 194.097 70.7253L195.221 71.1467C195.387 70.703 195.62 70.322 195.917 69.9974L195.032 69.1866ZM194.095 70.731C193.878 71.3281 193.771 71.9579 193.771 72.616H194.971C194.971 72.0901 195.056 71.5999 195.223 71.141L194.095 70.731ZM193.771 72.616C193.771 73.2741 193.878 73.9039 194.095 74.501L195.223 74.091C195.056 73.6321 194.971 73.1419 194.971 72.616H193.771ZM194.09 74.4857C194.293 75.0963 194.609 75.6173 195.016 76.0614L195.901 75.2506C195.604 74.9267 195.376 74.5517 195.228 74.1063L194.09 74.4857ZM195.007 76.0511C195.408 76.5092 195.917 76.8648 196.491 77.1053L196.955 75.9987C196.536 75.8232 196.181 75.5708 195.91 75.2609L195.007 76.0511ZM196.476 77.0988C197.058 77.3618 197.688 77.488 198.387 77.488V76.288C197.838 76.288 197.379 76.1902 196.97 76.0052L196.476 77.0988ZM198.387 77.488C199.081 77.488 199.744 77.3635 200.33 77.0988L199.836 76.0052C199.43 76.1885 198.94 76.288 198.387 76.288V77.488ZM200.315 77.1053C200.896 76.8615 201.383 76.5049 201.789 76.0614L200.904 75.2506C200.607 75.5751 200.261 75.8265 199.851 75.9987L200.315 77.1053ZM201.789 76.0614C202.196 75.6171 202.509 75.1004 202.727 74.501L201.599 74.091C201.433 74.5476 201.201 74.9269 200.904 75.2506L201.789 76.0614ZM202.732 74.4857C202.928 73.8981 203.035 73.2741 203.035 72.616H201.835C201.835 73.1419 201.75 73.6379 201.594 74.1063L202.732 74.4857Z" fill="black" mask="url(#path-15-outside-2_257_81)"/>
</svg>
