<svg width="170" height="210" viewBox="0 0 170 210" fill="none" xmlns="http://www.w3.org/2000/svg">
<path d="M45.5016 101.086L37.0708 92.4141C37.0708 92.4141 40.2273 96.8484 40.9321 99.3366C41.9851 103.054 39.2272 106.118 38.0685 107.245C36.9098 108.371 35.0151 110.427 34.2306 112.044C33.4461 113.66 34.0989 116.229 34.9582 117.955C35.8174 119.682 40.1998 125.244 40.1998 125.244C40.1998 125.244 47.0107 118.054 48.4976 116.355C49.9845 114.657 51.5804 112.411 50.6435 109.326C49.768 106.443 48.2424 103.906 45.5016 101.086Z" fill="#404040" stroke="#404040" stroke-linejoin="round"/>
<path d="M66.5341 96.7474C63.5524 99.8799 45.2135 119.804 45.2135 119.804C45.2135 119.804 57.3933 106.593 58.6398 97.1036C59.4936 90.6044 50.4259 82.7715 47.3115 79.8069C44.197 76.8424 38.9531 71.5795 36.2393 67.9107C33.5254 64.2419 33.0102 59.6806 33.5041 56.8939C33.998 54.1073 38.8168 46.21 38.8168 46.21C38.8168 46.21 60.7594 67.0964 64.4642 71.7085C68.169 76.3206 70.6599 78.7689 70.9733 84.1464C71.2662 89.171 70.0149 93.0905 66.5341 96.7474Z" fill="#6E3E9E" stroke="#6E3E9E" stroke-linejoin="round"/>
<path d="M50.116 114.529C47.7167 117.511 40.1996 125.254 40.1996 125.254C40.1996 125.254 44.3373 118.205 44.1135 114.883C43.779 109.919 38.0208 104.062 35.685 101.839C33.3491 99.6156 29.419 95.6654 27.3949 92.902C25.3708 90.1385 25.0268 86.673 25.4311 84.5474C25.8354 82.4219 29.5794 76.3625 29.5794 76.3625C29.5794 76.3625 46.0363 92.0273 48.8036 95.4982C51.5709 98.9691 53.4383 100.806 53.6205 104.895C53.7908 108.715 52.5561 111.498 50.116 114.529Z" fill="#00E4ED" stroke="#00E4ED" stroke-linejoin="round"/>
<path d="M100.072 44.7522L90.9955 36.7588C90.9955 36.7588 95.5798 39.693 98.0997 40.2744C101.865 41.1431 104.789 38.2376 105.857 37.0249C106.925 35.8121 108.885 33.8185 110.461 32.9554C112.037 32.0922 114.635 32.6177 116.402 33.3909C118.169 34.1641 123.94 38.2673 123.94 38.2673C123.94 38.2673 117.093 45.424 115.47 46.9927C113.847 48.5615 111.683 50.266 108.555 49.4821C105.633 48.7497 103.023 47.3509 100.072 44.7522Z" fill="#00E4ED" stroke="#00E4ED" stroke-linejoin="round"/>
<path d="M96.7744 65.9729C99.7562 62.8405 118.753 43.5427 118.753 43.5427C118.753 43.5427 106.158 56.3583 96.7414 58.0706C90.2921 59.2434 82.0222 50.5724 78.9079 47.6077C75.7936 44.6431 70.2788 39.6647 66.4808 37.1348C62.6828 34.6049 58.1017 34.3149 55.3427 34.9454C52.5838 35.5759 44.9334 40.7779 44.9334 40.7779C44.9334 40.7779 66.875 61.6652 71.6639 65.1384C76.4528 68.6116 79.0209 70.9789 84.4073 71.0272C89.4402 71.0723 93.2934 69.6296 96.7744 65.9729Z" fill="#404040" stroke="#404040" stroke-linejoin="round"/>
<path d="M113.726 48.6991C116.586 46.1558 123.95 38.2665 123.95 38.2665C123.95 38.2665 117.113 42.7464 113.784 42.6864C108.809 42.5967 102.676 37.1339 100.341 34.9104C98.005 32.6869 93.8661 28.9561 91.0063 27.0705C88.1465 25.185 84.6683 25.012 82.5652 25.5205C80.4621 26.0289 74.5945 30.0668 74.5945 30.0668C74.5945 30.0668 91.0506 45.7323 94.6536 48.3254C98.2566 50.9184 100.183 52.693 104.276 52.6737C108.1 52.6557 110.819 51.2855 113.726 48.6991Z" fill="#6E3E9E" stroke="#6E3E9E" stroke-linejoin="round"/>
<path d="M69.9238 124.692L79.0008 132.685C79.0008 132.685 74.4165 129.751 71.8966 129.17C68.1316 128.301 65.2069 131.207 64.1388 132.419C63.0708 133.632 61.1112 135.626 59.5351 136.489C57.9589 137.352 55.3616 136.826 53.5945 136.053C51.8273 135.28 46.0566 131.177 46.0566 131.177C46.0566 131.177 52.903 124.02 54.5261 122.451C56.1492 120.883 58.3133 119.178 61.4409 119.962C64.3632 120.694 66.9729 122.093 69.9238 124.692Z" fill="#FF5295" stroke="#FF5295" stroke-linejoin="round"/>
<path d="M73.2219 103.471C70.2401 106.604 51.2428 125.901 51.2428 125.901C51.2428 125.901 63.8381 113.086 73.2549 111.374C79.7041 110.201 87.9741 118.872 91.0884 121.836C94.2027 124.801 99.7174 129.779 103.515 132.309C107.313 134.839 111.895 135.129 114.654 134.499C117.412 133.868 125.063 128.666 125.063 128.666C125.063 128.666 103.121 107.779 98.3324 104.306C93.5434 100.833 90.9754 98.4652 85.589 98.417C80.5561 98.3719 76.7029 99.8146 73.2219 103.471Z" fill="#00E4ED" stroke="#00E4ED" stroke-linejoin="round"/>
<path d="M56.2699 120.745C53.4106 123.288 46.0464 131.178 46.0464 131.178C46.0464 131.178 52.8836 126.698 56.2128 126.758C61.187 126.847 67.3199 132.31 69.6556 134.534C71.9914 136.757 76.1302 140.488 78.99 142.374C81.8498 144.259 85.3281 144.432 87.4311 143.924C89.5342 143.415 95.4019 139.377 95.4019 139.377C95.4019 139.377 78.9457 123.712 75.3427 121.119C71.7398 118.526 69.8129 116.751 65.7203 116.77C61.8962 116.788 59.1778 118.159 56.2699 120.745Z" fill="#404040" stroke="#404040" stroke-linejoin="round"/>
<path d="M124.498 68.3576L132.929 77.0299C132.929 77.0299 129.773 72.5957 129.068 70.1075C128.015 66.3898 130.773 63.3256 131.932 62.1991C133.09 61.0727 134.985 59.0173 135.769 57.4005C136.554 55.7838 135.901 53.2155 135.042 51.4886C134.183 49.7617 129.8 44.2 129.8 44.2C129.8 44.2 122.989 51.3905 121.502 53.0889C120.015 54.7873 118.42 57.0327 119.357 60.1179C120.232 63.0006 121.758 65.5383 124.498 68.3576Z" fill="#404040" stroke="#404040" stroke-linejoin="round"/>
<path d="M103.466 72.6966C106.448 69.5642 124.787 49.6397 124.787 49.6397C124.787 49.6397 112.607 62.8507 111.36 72.3405C110.507 78.8396 119.574 86.6726 122.689 89.6371C125.803 92.6016 131.047 97.8645 133.761 101.533C136.475 105.202 136.99 109.763 136.496 112.55C136.002 115.337 131.183 123.234 131.183 123.234C131.183 123.234 109.241 102.348 105.536 97.7355C101.831 93.1235 99.3402 90.6751 99.0267 85.2976C98.7339 80.2731 99.9851 76.3535 103.466 72.6966Z" fill="#FF5295" stroke="#FF5295" stroke-linejoin="round"/>
<path d="M119.884 54.9146C122.283 51.9335 129.801 44.1898 129.801 44.1898C129.801 44.1898 125.663 51.2392 125.887 54.5614C126.221 59.5252 131.979 65.3817 134.315 67.6051C136.651 69.8285 140.581 73.7786 142.605 76.5421C144.629 79.3056 144.973 82.771 144.569 84.8966C144.165 87.0222 140.421 93.0816 140.421 93.0816C140.421 93.0816 123.964 77.4168 121.196 73.9459C118.429 70.475 116.562 68.6378 116.38 64.5492C116.209 60.7289 117.444 57.9463 119.884 54.9146Z" fill="#00E4ED" stroke="#00E4ED" stroke-linejoin="round"/>
<mask id="path-13-outside-1_257_62" maskUnits="userSpaceOnUse" x="31" y="155" width="117" height="33" fill="black">
<rect fill="white" x="31" y="155" width="117" height="33"/>
<path d="M32.96 171.84V186H32.2V156.96H53.88V157.56H32.96V171.2H48.84V171.84H32.96ZM59.8938 156.96H60.6138V181.28C60.6138 181.84 60.6538 182.4 60.7338 182.92C60.8138 183.48 60.9738 183.96 61.2138 184.4C61.4138 184.84 61.7338 185.16 62.1738 185.44C62.6138 185.72 63.1338 185.84 63.8138 185.84C64.4538 185.84 64.9338 185.8 65.2538 185.68C65.4538 185.64 65.7338 185.56 66.0138 185.44V186.08C65.4138 186.32 64.6938 186.44 63.8138 186.44C63.0138 186.44 62.3738 186.32 61.8538 186.04C61.3338 185.72 60.9338 185.36 60.6538 184.88C60.3738 184.44 60.1738 183.88 60.0538 183.24C59.9338 182.64 59.8938 181.96 59.8938 181.28V156.96ZM68.4078 175.04C68.4078 173.48 68.6478 172 69.1678 170.6C69.6878 169.24 70.4078 168.04 71.3278 167C72.2478 166 73.4078 165.16 74.7278 164.56C76.0478 163.96 77.4878 163.68 79.1278 163.68C80.7678 163.68 82.2878 163.96 83.6078 164.56C84.9278 165.16 86.0478 166 87.0078 167C87.9278 168.04 88.6478 169.24 89.1678 170.6C89.6878 172 89.9278 173.48 89.9278 175.04C89.9278 176.6 89.6878 178.08 89.1678 179.48C88.6478 180.88 87.9278 182.08 87.0078 183.08C86.0478 184.12 84.9278 184.92 83.6078 185.52C82.2878 186.12 80.7678 186.4 79.1278 186.4C77.4878 186.4 76.0478 186.12 74.7278 185.52C73.4078 184.92 72.2478 184.12 71.3278 183.08C70.4078 182.08 69.6878 180.88 69.1678 179.48C68.6478 178.08 68.4078 176.6 68.4078 175.04ZM89.2478 175.04C89.2478 173.56 89.0078 172.16 88.5278 170.84C88.0478 169.56 87.3678 168.44 86.4878 167.48C85.6078 166.52 84.5678 165.76 83.3278 165.2C82.0878 164.64 80.6878 164.36 79.1278 164.36C77.6078 164.36 76.2478 164.64 75.0078 165.2C73.7678 165.76 72.6878 166.52 71.8478 167.48C70.9678 168.44 70.2878 169.56 69.8078 170.84C69.3278 172.16 69.0878 173.56 69.0878 175.04C69.0878 176.52 69.3278 177.92 69.8078 179.24C70.2478 180.56 70.9278 181.68 71.8078 182.64C72.6478 183.6 73.7278 184.36 74.9678 184.88C76.2078 185.44 77.5678 185.72 79.1278 185.72C80.6878 185.72 82.1278 185.44 83.3678 184.88C84.6078 184.36 85.6478 183.6 86.5278 182.64C87.4078 181.68 88.0878 180.56 88.5678 179.24C89.0078 177.92 89.2478 176.52 89.2478 175.04ZM102.039 174.24L111.519 186H110.479L101.519 174.92L92.9991 186H92.0391L100.999 174.32L92.3591 163.56H93.3991L101.559 173.64L109.279 163.56H110.239L102.039 174.24ZM118.466 158.88C118.186 158.88 117.946 158.8 117.786 158.6C117.586 158.44 117.506 158.2 117.506 157.92C117.506 157.28 117.826 156.96 118.466 156.96C118.746 156.96 118.986 157.04 119.186 157.2C119.346 157.4 119.426 157.64 119.426 157.92C119.426 158.56 119.106 158.88 118.466 158.88ZM118.106 163.56H118.826V186H118.106V163.56ZM134.826 164.36C133.346 164.36 131.986 164.64 130.746 165.16C129.506 165.72 128.466 166.48 127.586 167.4C126.706 168.32 126.026 169.44 125.546 170.72C125.066 172 124.826 173.36 124.786 174.84H144.946C144.906 173.36 144.666 172 144.186 170.72C143.706 169.44 143.026 168.32 142.146 167.4C141.266 166.48 140.226 165.72 138.986 165.16C137.746 164.64 136.346 164.36 134.826 164.36ZM135.466 185.72C137.506 185.72 139.306 185.32 140.826 184.48C142.346 183.64 143.586 182.52 144.506 181.12L145.306 181.08C144.386 182.68 143.066 183.96 141.386 184.92C139.706 185.92 137.746 186.4 135.466 186.4C133.746 186.4 132.226 186.12 130.826 185.56C129.426 185 128.266 184.2 127.266 183.2C126.266 182.2 125.466 181 124.946 179.6C124.386 178.2 124.106 176.68 124.106 175.04C124.106 173.48 124.346 172 124.866 170.6C125.386 169.24 126.106 168.04 127.026 167C127.946 166 129.106 165.16 130.426 164.56C131.746 163.96 133.186 163.68 134.826 163.68C136.426 163.68 137.906 163.96 139.226 164.52C140.546 165.08 141.666 165.88 142.626 166.92C143.586 167.96 144.346 169.2 144.866 170.64C145.386 172.12 145.626 173.72 145.626 175.48H124.786C124.826 177 125.106 178.4 125.666 179.64C126.186 180.92 126.946 182 127.866 182.88C128.786 183.8 129.906 184.48 131.226 184.96C132.506 185.48 133.906 185.72 135.466 185.72Z"/>
</mask>
<path d="M32.96 171.84V186H32.2V156.96H53.88V157.56H32.96V171.2H48.84V171.84H32.96ZM59.8938 156.96H60.6138V181.28C60.6138 181.84 60.6538 182.4 60.7338 182.92C60.8138 183.48 60.9738 183.96 61.2138 184.4C61.4138 184.84 61.7338 185.16 62.1738 185.44C62.6138 185.72 63.1338 185.84 63.8138 185.84C64.4538 185.84 64.9338 185.8 65.2538 185.68C65.4538 185.64 65.7338 185.56 66.0138 185.44V186.08C65.4138 186.32 64.6938 186.44 63.8138 186.44C63.0138 186.44 62.3738 186.32 61.8538 186.04C61.3338 185.72 60.9338 185.36 60.6538 184.88C60.3738 184.44 60.1738 183.88 60.0538 183.24C59.9338 182.64 59.8938 181.96 59.8938 181.28V156.96ZM68.4078 175.04C68.4078 173.48 68.6478 172 69.1678 170.6C69.6878 169.24 70.4078 168.04 71.3278 167C72.2478 166 73.4078 165.16 74.7278 164.56C76.0478 163.96 77.4878 163.68 79.1278 163.68C80.7678 163.68 82.2878 163.96 83.6078 164.56C84.9278 165.16 86.0478 166 87.0078 167C87.9278 168.04 88.6478 169.24 89.1678 170.6C89.6878 172 89.9278 173.48 89.9278 175.04C89.9278 176.6 89.6878 178.08 89.1678 179.48C88.6478 180.88 87.9278 182.08 87.0078 183.08C86.0478 184.12 84.9278 184.92 83.6078 185.52C82.2878 186.12 80.7678 186.4 79.1278 186.4C77.4878 186.4 76.0478 186.12 74.7278 185.52C73.4078 184.92 72.2478 184.12 71.3278 183.08C70.4078 182.08 69.6878 180.88 69.1678 179.48C68.6478 178.08 68.4078 176.6 68.4078 175.04ZM89.2478 175.04C89.2478 173.56 89.0078 172.16 88.5278 170.84C88.0478 169.56 87.3678 168.44 86.4878 167.48C85.6078 166.52 84.5678 165.76 83.3278 165.2C82.0878 164.64 80.6878 164.36 79.1278 164.36C77.6078 164.36 76.2478 164.64 75.0078 165.2C73.7678 165.76 72.6878 166.52 71.8478 167.48C70.9678 168.44 70.2878 169.56 69.8078 170.84C69.3278 172.16 69.0878 173.56 69.0878 175.04C69.0878 176.52 69.3278 177.92 69.8078 179.24C70.2478 180.56 70.9278 181.68 71.8078 182.64C72.6478 183.6 73.7278 184.36 74.9678 184.88C76.2078 185.44 77.5678 185.72 79.1278 185.72C80.6878 185.72 82.1278 185.44 83.3678 184.88C84.6078 184.36 85.6478 183.6 86.5278 182.64C87.4078 181.68 88.0878 180.56 88.5678 179.24C89.0078 177.92 89.2478 176.52 89.2478 175.04ZM102.039 174.24L111.519 186H110.479L101.519 174.92L92.9991 186H92.0391L100.999 174.32L92.3591 163.56H93.3991L101.559 173.64L109.279 163.56H110.239L102.039 174.24ZM118.466 158.88C118.186 158.88 117.946 158.8 117.786 158.6C117.586 158.44 117.506 158.2 117.506 157.92C117.506 157.28 117.826 156.96 118.466 156.96C118.746 156.96 118.986 157.04 119.186 157.2C119.346 157.4 119.426 157.64 119.426 157.92C119.426 158.56 119.106 158.88 118.466 158.88ZM118.106 163.56H118.826V186H118.106V163.56ZM134.826 164.36C133.346 164.36 131.986 164.64 130.746 165.16C129.506 165.72 128.466 166.48 127.586 167.4C126.706 168.32 126.026 169.44 125.546 170.72C125.066 172 124.826 173.36 124.786 174.84H144.946C144.906 173.36 144.666 172 144.186 170.72C143.706 169.44 143.026 168.32 142.146 167.4C141.266 166.48 140.226 165.72 138.986 165.16C137.746 164.64 136.346 164.36 134.826 164.36ZM135.466 185.72C137.506 185.72 139.306 185.32 140.826 184.48C142.346 183.64 143.586 182.52 144.506 181.12L145.306 181.08C144.386 182.68 143.066 183.96 141.386 184.92C139.706 185.92 137.746 186.4 135.466 186.4C133.746 186.4 132.226 186.12 130.826 185.56C129.426 185 128.266 184.2 127.266 183.2C126.266 182.2 125.466 181 124.946 179.6C124.386 178.2 124.106 176.68 124.106 175.04C124.106 173.48 124.346 172 124.866 170.6C125.386 169.24 126.106 168.04 127.026 167C127.946 166 129.106 165.16 130.426 164.56C131.746 163.96 133.186 163.68 134.826 163.68C136.426 163.68 137.906 163.96 139.226 164.52C140.546 165.08 141.666 165.88 142.626 166.92C143.586 167.96 144.346 169.2 144.866 170.64C145.386 172.12 145.626 173.72 145.626 175.48H124.786C124.826 177 125.106 178.4 125.666 179.64C126.186 180.92 126.946 182 127.866 182.88C128.786 183.8 129.906 184.48 131.226 184.96C132.506 185.48 133.906 185.72 135.466 185.72Z" fill="black"/>
<path d="M32.96 171.84V170.84H31.96V171.84H32.96ZM32.96 186V187H33.96V186H32.96ZM32.2 186H31.2V187H32.2V186ZM32.2 156.96V155.96H31.2V156.96H32.2ZM53.88 156.96H54.88V155.96H53.88V156.96ZM53.88 157.56V158.56H54.88V157.56H53.88ZM32.96 157.56V156.56H31.96V157.56H32.96ZM32.96 171.2H31.96V172.2H32.96V171.2ZM48.84 171.2H49.84V170.2H48.84V171.2ZM48.84 171.84V172.84H49.84V171.84H48.84ZM31.96 171.84V186H33.96V171.84H31.96ZM32.96 185H32.2V187H32.96V185ZM33.2 186V156.96H31.2V186H33.2ZM32.2 157.96H53.88V155.96H32.2V157.96ZM52.88 156.96V157.56H54.88V156.96H52.88ZM53.88 156.56H32.96V158.56H53.88V156.56ZM31.96 157.56V171.2H33.96V157.56H31.96ZM32.96 172.2H48.84V170.2H32.96V172.2ZM47.84 171.2V171.84H49.84V171.2H47.84ZM48.84 170.84H32.96V172.84H48.84V170.84ZM59.8938 156.96V155.96H58.8938V156.96H59.8938ZM60.6138 156.96H61.6138V155.96H60.6138V156.96ZM60.7338 182.92L61.7238 182.779L61.7221 182.768L60.7338 182.92ZM61.2138 184.4L62.1241 183.986L62.1091 183.953L62.0916 183.921L61.2138 184.4ZM62.1738 185.44L61.6369 186.284L61.6369 186.284L62.1738 185.44ZM65.2538 185.68L65.0576 184.699L64.9783 184.715L64.9026 184.744L65.2538 185.68ZM66.0138 185.44H67.0138V183.923L65.6198 184.521L66.0138 185.44ZM66.0138 186.08L66.3851 187.008L67.0138 186.757V186.08H66.0138ZM61.8538 186.04L61.3297 186.892L61.3542 186.907L61.3797 186.92L61.8538 186.04ZM60.6538 184.88L61.5175 184.376L61.5078 184.359L61.4974 184.343L60.6538 184.88ZM60.0538 183.24L61.0367 183.056L61.0343 183.044L60.0538 183.24ZM59.8938 157.96H60.6138V155.96H59.8938V157.96ZM59.6138 156.96V181.28H61.6138V156.96H59.6138ZM59.6138 181.28C59.6138 181.886 59.6569 182.497 59.7454 183.072L61.7221 182.768C61.6506 182.303 61.6138 181.794 61.6138 181.28H59.6138ZM59.7438 183.061C59.8397 183.733 60.0354 184.328 60.3359 184.879L62.0916 183.921C61.9121 183.592 61.7878 183.227 61.7237 182.779L59.7438 183.061ZM60.3034 184.814C60.6049 185.477 61.0831 185.931 61.6369 186.284L62.7106 184.596C62.3844 184.389 62.2226 184.203 62.1241 183.986L60.3034 184.814ZM61.6369 186.284C62.288 186.698 63.0143 186.84 63.8138 186.84V184.84C63.2532 184.84 62.9395 184.742 62.7106 184.596L61.6369 186.284ZM63.8138 186.84C64.45 186.84 65.0968 186.807 65.6049 186.616L64.9026 184.744C64.7707 184.793 64.4575 184.84 63.8138 184.84V186.84ZM65.4499 186.661C65.7142 186.608 66.0608 186.508 66.4077 186.359L65.6198 184.521C65.4067 184.612 65.1933 184.672 65.0576 184.699L65.4499 186.661ZM65.0138 185.44V186.08H67.0138V185.44H65.0138ZM65.6424 185.152C65.1925 185.331 64.6063 185.44 63.8138 185.44V187.44C64.7812 187.44 65.635 187.309 66.3851 187.008L65.6424 185.152ZM63.8138 185.44C63.1044 185.44 62.648 185.332 62.3279 185.16L61.3797 186.92C62.0995 187.308 62.9231 187.44 63.8138 187.44V185.44ZM62.3778 185.188C61.9509 184.926 61.6907 184.673 61.5175 184.376L59.79 185.384C60.1768 186.047 60.7166 186.514 61.3297 186.892L62.3778 185.188ZM61.4974 184.343C61.3043 184.04 61.1404 183.609 61.0366 183.056L59.0709 183.424C59.2071 184.151 59.4432 184.84 59.8101 185.417L61.4974 184.343ZM61.0343 183.044C60.9326 182.535 60.8938 181.929 60.8938 181.28H58.8938C58.8938 181.991 58.9349 182.745 59.0732 183.436L61.0343 183.044ZM60.8938 181.28V156.96H58.8938V181.28H60.8938ZM69.1678 170.6L68.2337 170.243L68.2304 170.252L69.1678 170.6ZM71.3278 167L70.5919 166.323L70.5853 166.33L70.5788 166.337L71.3278 167ZM74.7278 164.56L75.1416 165.47L75.1416 165.47L74.7278 164.56ZM83.6078 164.56L84.0216 163.65L84.0216 163.65L83.6078 164.56ZM87.0078 167L87.7568 166.337L87.7433 166.322L87.7292 166.307L87.0078 167ZM89.1678 170.6L90.1053 170.252L90.1019 170.243L89.1678 170.6ZM89.1678 179.48L88.2304 179.132L88.2304 179.132L89.1678 179.48ZM87.0078 183.08L87.7426 183.758L87.7437 183.757L87.0078 183.08ZM83.6078 185.52L84.0216 186.43L84.0216 186.43L83.6078 185.52ZM74.7278 185.52L75.1416 184.61L75.1416 184.61L74.7278 185.52ZM71.3278 183.08L72.0768 182.417L72.0703 182.41L72.0637 182.403L71.3278 183.08ZM69.1678 179.48L68.2304 179.828L68.2304 179.828L69.1678 179.48ZM88.5278 170.84L89.4677 170.498L89.4641 170.489L88.5278 170.84ZM86.4878 167.48L87.225 166.804L87.225 166.804L86.4878 167.48ZM83.3278 165.2L83.7394 164.289L83.7394 164.289L83.3278 165.2ZM71.8478 167.48L72.585 168.156L72.5928 168.147L72.6004 168.139L71.8478 167.48ZM69.8078 170.84L68.8714 170.489L68.868 170.498L69.8078 170.84ZM69.8078 179.24L70.7565 178.924L70.7522 178.911L70.7476 178.898L69.8078 179.24ZM71.8078 182.64L72.5604 181.981L72.5528 181.973L72.545 181.964L71.8078 182.64ZM74.9678 184.88L75.3794 183.969L75.367 183.963L75.3545 183.958L74.9678 184.88ZM83.3678 184.88L82.9811 183.958L82.9686 183.963L82.9562 183.969L83.3678 184.88ZM86.5278 182.64L85.7907 181.964L85.7907 181.964L86.5278 182.64ZM88.5678 179.24L89.5076 179.582L89.5122 179.569L89.5165 179.556L88.5678 179.24ZM69.4078 175.04C69.4078 173.584 69.6314 172.224 70.1052 170.948L68.2304 170.252C67.6642 171.776 67.4078 173.376 67.4078 175.04H69.4078ZM70.1019 170.957C70.5811 169.704 71.2401 168.608 72.0768 167.663L70.5788 166.337C69.5755 167.472 68.7945 168.776 68.2338 170.243L70.1019 170.957ZM72.0637 167.677C72.8901 166.779 73.9394 166.017 75.1416 165.47L74.314 163.65C72.8762 164.303 71.6055 165.221 70.5919 166.323L72.0637 167.677ZM75.1416 165.47C76.3111 164.939 77.6061 164.68 79.1278 164.68V162.68C77.3695 162.68 75.7845 162.981 74.314 163.65L75.1416 165.47ZM79.1278 164.68C80.6571 164.68 82.0303 164.941 83.194 165.47L84.0216 163.65C82.5454 162.979 80.8785 162.68 79.1278 162.68V164.68ZM83.194 165.47C84.3848 166.012 85.4031 166.772 86.2864 167.693L87.7292 166.307C86.6926 165.228 85.4708 164.308 84.0216 163.65L83.194 165.47ZM86.2588 167.663C87.0955 168.608 87.7545 169.704 88.2338 170.957L90.1019 170.243C89.5411 168.776 88.7601 167.472 87.7568 166.337L86.2588 167.663ZM88.2304 170.948C88.7042 172.224 88.9278 173.584 88.9278 175.04H90.9278C90.9278 173.376 90.6714 171.776 90.1052 170.252L88.2304 170.948ZM88.9278 175.04C88.9278 176.496 88.7042 177.856 88.2304 179.132L90.1052 179.828C90.6714 178.304 90.9278 176.704 90.9278 175.04H88.9278ZM88.2304 179.132C87.7511 180.422 87.0957 181.508 86.2719 182.403L87.7437 183.757C88.7599 182.652 89.5445 181.338 90.1052 179.828L88.2304 179.132ZM86.273 182.402C85.4072 183.34 84.3977 184.062 83.194 184.61L84.0216 186.43C85.4579 185.778 86.6884 184.9 87.7426 183.758L86.273 182.402ZM83.194 184.61C82.0303 185.139 80.6571 185.4 79.1278 185.4V187.4C80.8785 187.4 82.5454 187.101 84.0216 186.43L83.194 184.61ZM79.1278 185.4C77.6061 185.4 76.3111 185.141 75.1416 184.61L74.314 186.43C75.7845 187.099 77.3695 187.4 79.1278 187.4V185.4ZM75.1416 184.61C73.9251 184.057 72.8875 183.334 72.0768 182.417L70.5788 183.743C71.6082 184.906 72.8905 185.783 74.314 186.43L75.1416 184.61ZM72.0637 182.403C71.2399 181.508 70.5845 180.422 70.1052 179.132L68.2304 179.828C68.7911 181.338 69.5757 182.652 70.5919 183.757L72.0637 182.403ZM70.1052 179.132C69.6314 177.856 69.4078 176.496 69.4078 175.04H67.4078C67.4078 176.704 67.6642 178.304 68.2304 179.828L70.1052 179.132ZM90.2478 175.04C90.2478 173.45 89.9895 171.934 89.4676 170.498L87.588 171.182C88.0261 172.386 88.2478 173.67 88.2478 175.04H90.2478ZM89.4641 170.489C88.9414 169.095 88.1958 167.863 87.225 166.804L85.7507 168.156C86.5398 169.017 87.1542 170.025 87.5915 171.191L89.4641 170.489ZM87.225 166.804C86.2535 165.745 85.1028 164.904 83.7394 164.289L82.9162 166.111C84.0329 166.616 84.9621 167.295 85.7507 168.156L87.225 166.804ZM83.7394 164.289C82.3524 163.662 80.809 163.36 79.1278 163.36V165.36C80.5666 165.36 81.8232 165.618 82.9162 166.111L83.7394 164.289ZM79.1278 163.36C77.4805 163.36 75.9783 163.664 74.5962 164.289L75.4194 166.111C76.5173 165.616 77.7351 165.36 79.1278 165.36V163.36ZM74.5962 164.289C73.2465 164.898 72.0434 165.738 71.0952 166.821L72.6004 168.139C73.3322 167.302 74.2892 166.622 75.4194 166.111L74.5962 164.289ZM71.1107 166.804C70.1398 167.863 69.3942 169.095 68.8715 170.489L70.7441 171.191C71.1814 170.025 71.7958 169.017 72.585 168.156L71.1107 166.804ZM68.868 170.498C68.3461 171.934 68.0878 173.45 68.0878 175.04H70.0878C70.0878 173.67 70.3095 172.386 70.7476 171.182L68.868 170.498ZM68.0878 175.04C68.0878 176.63 68.3461 178.146 68.868 179.582L70.7476 178.898C70.3095 177.694 70.0878 176.41 70.0878 175.04H68.0878ZM68.8591 179.556C69.345 181.014 70.0988 182.255 71.0707 183.316L72.545 181.964C71.7569 181.105 71.1506 180.106 70.7565 178.924L68.8591 179.556ZM71.0552 183.299C72.0033 184.382 73.2119 185.228 74.5811 185.802L75.3545 183.958C74.2437 183.492 73.2924 182.818 72.5604 181.981L71.0552 183.299ZM74.5562 185.791C75.94 186.416 77.4426 186.72 79.1278 186.72V184.72C77.693 184.72 76.4756 184.464 75.3794 183.969L74.5562 185.791ZM79.1278 186.72C80.805 186.72 82.3893 186.419 83.7794 185.791L82.9562 183.969C81.8663 184.461 80.5706 184.72 79.1278 184.72V186.72ZM83.7545 185.802C85.1368 185.223 86.2942 184.375 87.265 183.316L85.7907 181.964C85.0015 182.825 84.0788 183.497 82.9811 183.958L83.7545 185.802ZM87.265 183.316C88.2371 182.255 88.9844 181.021 89.5076 179.582L87.628 178.898C87.1912 180.099 86.5785 181.105 85.7907 181.964L87.265 183.316ZM89.5165 179.556C89.9896 178.137 90.2478 176.63 90.2478 175.04H88.2478C88.2478 176.41 88.026 177.703 87.6191 178.924L89.5165 179.556ZM102.039 174.24L101.246 173.631L100.767 174.255L101.261 174.868L102.039 174.24ZM111.519 186V187H113.61L112.298 185.372L111.519 186ZM110.479 186L109.701 186.629L110.002 187H110.479V186ZM101.519 174.92L102.297 174.291L101.499 173.305L100.726 174.31L101.519 174.92ZM92.9991 186V187H93.4916L93.7918 186.61L92.9991 186ZM92.0391 186L91.2456 185.391L90.0116 187H92.0391V186ZM100.999 174.32L101.792 174.929L102.27 174.306L101.779 173.694L100.999 174.32ZM92.3591 163.56V162.56H90.2736L91.5793 164.186L92.3591 163.56ZM93.3991 163.56L94.1763 162.931L93.8761 162.56H93.3991V163.56ZM101.559 173.64L100.782 174.269L101.581 175.256L102.353 174.248L101.559 173.64ZM109.279 163.56V162.56H108.785L108.485 162.952L109.279 163.56ZM110.239 163.56L111.032 164.169L112.268 162.56H110.239V163.56ZM101.261 174.868L110.741 186.628L112.298 185.372L102.818 173.612L101.261 174.868ZM111.519 185H110.479V187H111.519V185ZM111.257 185.371L102.297 174.291L100.741 175.549L109.701 186.629L111.257 185.371ZM100.726 174.31L92.2063 185.39L93.7918 186.61L102.312 175.53L100.726 174.31ZM92.9991 185H92.0391V187H92.9991V185ZM92.8325 186.609L101.792 174.929L100.206 173.711L91.2456 185.391L92.8325 186.609ZM101.779 173.694L93.1388 162.934L91.5793 164.186L100.219 174.946L101.779 173.694ZM92.3591 164.56H93.3991V162.56H92.3591V164.56ZM92.6218 164.189L100.782 174.269L102.336 173.011L94.1763 162.931L92.6218 164.189ZM102.353 174.248L110.073 164.168L108.485 162.952L100.765 173.032L102.353 174.248ZM109.279 164.56H110.239V162.56H109.279V164.56ZM109.446 162.951L101.246 173.631L102.832 174.849L111.032 164.169L109.446 162.951ZM117.786 158.6L118.567 157.975L118.498 157.889L118.411 157.819L117.786 158.6ZM119.186 157.2L119.967 156.575L119.898 156.489L119.811 156.419L119.186 157.2ZM118.106 163.56V162.56H117.106V163.56H118.106ZM118.826 163.56H119.826V162.56H118.826V163.56ZM118.826 186V187H119.826V186H118.826ZM118.106 186H117.106V187H118.106V186ZM118.466 157.88C118.418 157.88 118.417 157.873 118.446 157.884C118.461 157.89 118.482 157.9 118.506 157.917C118.53 157.934 118.55 157.955 118.567 157.975L117.005 159.225C117.419 159.742 118.002 159.88 118.466 159.88V157.88ZM118.411 157.819C118.432 157.836 118.452 157.857 118.469 157.881C118.486 157.904 118.497 157.925 118.502 157.941C118.514 157.969 118.506 157.968 118.506 157.92H116.506C116.506 158.384 116.645 158.967 117.162 159.381L118.411 157.819ZM118.506 157.92C118.506 157.881 118.509 157.854 118.511 157.836C118.514 157.819 118.516 157.813 118.515 157.816C118.514 157.82 118.509 157.832 118.499 157.849C118.488 157.867 118.473 157.888 118.453 157.907C118.434 157.927 118.414 157.942 118.396 157.952C118.378 157.963 118.366 157.968 118.362 157.969C118.359 157.97 118.365 157.967 118.383 157.965C118.4 157.962 118.428 157.96 118.466 157.96V155.96C117.992 155.96 117.453 156.079 117.039 156.493C116.625 156.907 116.506 157.446 116.506 157.92H118.506ZM118.466 157.96C118.542 157.96 118.556 157.976 118.562 157.981L119.811 156.419C119.417 156.104 118.951 155.96 118.466 155.96V157.96ZM118.405 157.825C118.41 157.831 118.426 157.845 118.426 157.92H120.426C120.426 157.435 120.282 156.969 119.967 156.575L118.405 157.825ZM118.426 157.92C118.426 157.959 118.424 157.986 118.421 158.004C118.419 158.021 118.417 158.027 118.418 158.024C118.419 158.02 118.423 158.008 118.434 157.991C118.445 157.973 118.46 157.952 118.479 157.933C118.499 157.913 118.519 157.898 118.537 157.888C118.554 157.877 118.567 157.872 118.57 157.871C118.573 157.87 118.567 157.873 118.55 157.875C118.532 157.878 118.505 157.88 118.466 157.88V159.88C118.94 159.88 119.48 159.761 119.893 159.347C120.307 158.933 120.426 158.394 120.426 157.92H118.426ZM118.106 164.56H118.826V162.56H118.106V164.56ZM117.826 163.56V186H119.826V163.56H117.826ZM118.826 185H118.106V187H118.826V185ZM119.106 186V163.56H117.106V186H119.106ZM130.746 165.16L130.36 164.238L130.347 164.243L130.335 164.249L130.746 165.16ZM124.786 174.84L123.787 174.813L123.759 175.84H124.786V174.84ZM144.946 174.84V175.84H145.974L145.946 174.813L144.946 174.84ZM144.186 170.72L145.123 170.369L145.123 170.369L144.186 170.72ZM142.146 167.4L142.869 166.709L142.869 166.709L142.146 167.4ZM138.986 165.16L139.398 164.249L139.385 164.243L139.373 164.238L138.986 165.16ZM140.826 184.48L140.343 183.605L140.343 183.605L140.826 184.48ZM144.506 181.12L144.456 180.121L143.949 180.147L143.671 180.571L144.506 181.12ZM145.306 181.08L146.173 181.578L147.087 179.99L145.256 180.081L145.306 181.08ZM141.386 184.92L140.89 184.052L140.882 184.056L140.875 184.061L141.386 184.92ZM130.826 185.56L130.455 186.488L130.455 186.488L130.826 185.56ZM127.266 183.2L126.559 183.907L126.559 183.907L127.266 183.2ZM124.946 179.6L125.884 179.252L125.879 179.24L125.875 179.229L124.946 179.6ZM124.866 170.6L123.932 170.243L123.929 170.252L124.866 170.6ZM127.026 167L126.29 166.323L126.284 166.33L126.277 166.337L127.026 167ZM130.426 164.56L130.84 165.47L130.84 165.47L130.426 164.56ZM139.226 164.52L139.617 163.599L139.617 163.599L139.226 164.52ZM142.626 166.92L141.891 167.598L141.891 167.598L142.626 166.92ZM144.866 170.64L145.81 170.309L145.807 170.3L144.866 170.64ZM145.626 175.48V176.48H146.626V175.48H145.626ZM124.786 175.48V174.48H123.76L123.787 175.506L124.786 175.48ZM125.666 179.64L126.593 179.264L126.586 179.246L126.578 179.228L125.666 179.64ZM127.866 182.88L128.573 182.173L128.566 182.165L128.557 182.157L127.866 182.88ZM131.226 184.96L131.603 184.034L131.585 184.027L131.568 184.02L131.226 184.96ZM134.826 163.36C133.217 163.36 131.725 163.665 130.36 164.238L131.133 166.082C132.247 165.615 133.476 165.36 134.826 165.36V163.36ZM130.335 164.249C128.973 164.864 127.828 165.7 126.864 166.709L128.309 168.091C129.104 167.26 130.04 166.576 131.158 166.071L130.335 164.249ZM126.864 166.709C125.88 167.737 125.132 168.977 124.61 170.369L126.483 171.071C126.921 169.903 127.533 168.903 128.309 168.091L126.864 166.709ZM124.61 170.369C124.085 171.768 123.829 173.24 123.787 174.813L125.786 174.867C125.823 173.48 126.047 172.232 126.483 171.071L124.61 170.369ZM124.786 175.84H144.946V173.84H124.786V175.84ZM145.946 174.813C145.903 173.24 145.647 171.768 145.123 170.369L143.25 171.071C143.685 172.232 143.909 173.48 143.947 174.867L145.946 174.813ZM145.123 170.369C144.601 168.977 143.853 167.737 142.869 166.709L141.424 168.091C142.2 168.903 142.812 169.903 143.25 171.071L145.123 170.369ZM142.869 166.709C141.904 165.7 140.76 164.864 139.398 164.249L138.575 166.071C139.693 166.576 140.628 167.26 141.424 168.091L142.869 166.709ZM139.373 164.238C138.002 163.663 136.47 163.36 134.826 163.36V165.36C136.223 165.36 137.49 165.617 138.6 166.082L139.373 164.238ZM135.466 186.72C137.636 186.72 139.611 186.294 141.31 185.355L140.343 183.605C139.002 184.346 137.377 184.72 135.466 184.72V186.72ZM141.31 185.355C142.962 184.442 144.327 183.214 145.342 181.669L143.671 180.571C142.846 181.826 141.731 182.838 140.343 183.605L141.31 185.355ZM144.556 182.119L145.356 182.079L145.256 180.081L144.456 180.121L144.556 182.119ZM144.439 180.582C143.615 182.015 142.428 183.173 140.89 184.052L141.882 185.788C143.704 184.747 145.158 183.345 146.173 181.578L144.439 180.582ZM140.875 184.061C139.377 184.952 137.602 185.4 135.466 185.4V187.4C137.891 187.4 140.035 186.888 141.898 185.779L140.875 184.061ZM135.466 185.4C133.859 185.4 132.467 185.139 131.198 184.632L130.455 186.488C131.986 187.101 133.634 187.4 135.466 187.4V185.4ZM131.198 184.632C129.932 184.125 128.884 183.404 127.973 182.493L126.559 183.907C127.648 184.996 128.92 185.875 130.455 186.488L131.198 184.632ZM127.973 182.493C127.069 181.589 126.351 180.51 125.884 179.252L124.009 179.948C124.582 181.49 125.463 182.811 126.559 183.907L127.973 182.493ZM125.875 179.229C125.366 177.957 125.106 176.564 125.106 175.04H123.106C123.106 176.796 123.407 178.443 124.018 179.971L125.875 179.229ZM125.106 175.04C125.106 173.584 125.33 172.224 125.804 170.948L123.929 170.252C123.363 171.776 123.106 173.376 123.106 175.04H125.106ZM125.8 170.957C126.28 169.704 126.939 168.608 127.775 167.663L126.277 166.337C125.274 167.472 124.493 168.776 123.932 170.243L125.8 170.957ZM127.762 167.677C128.589 166.779 129.638 166.017 130.84 165.47L130.012 163.65C128.575 164.303 127.304 165.221 126.29 166.323L127.762 167.677ZM130.84 165.47C132.01 164.939 133.305 164.68 134.826 164.68V162.68C133.068 162.68 131.483 162.981 130.012 163.65L130.84 165.47ZM134.826 164.68C136.309 164.68 137.654 164.939 138.836 165.441L139.617 163.599C138.158 162.981 136.543 162.68 134.826 162.68V164.68ZM138.836 165.441C140.022 165.944 141.025 166.66 141.891 167.598L143.361 166.242C142.307 165.1 141.071 164.216 139.617 163.599L138.836 165.441ZM141.891 167.598C142.759 168.538 143.45 169.663 143.926 170.98L145.807 170.3C145.242 168.737 144.413 167.382 143.361 166.242L141.891 167.598ZM143.923 170.971C144.399 172.327 144.626 173.812 144.626 175.48H146.626C146.626 173.628 146.374 171.913 145.81 170.309L143.923 170.971ZM145.626 174.48H124.786V176.48H145.626V174.48ZM123.787 175.506C123.829 177.131 124.13 178.667 124.755 180.052L126.578 179.228C126.083 178.133 125.823 176.869 125.786 175.454L123.787 175.506ZM124.74 180.016C125.315 181.432 126.157 182.629 127.175 183.603L128.557 182.157C127.735 181.371 127.058 180.408 126.593 179.264L124.74 180.016ZM127.159 183.587C128.196 184.624 129.447 185.377 130.885 185.9L131.568 184.02C130.366 183.583 129.376 182.976 128.573 182.173L127.159 183.587ZM130.85 185.886C132.27 186.464 133.802 186.72 135.466 186.72V184.72C134.01 184.72 132.742 184.496 131.603 184.034L130.85 185.886Z" fill="black" mask="url(#path-13-outside-1_257_62)"/>
<mask id="path-15-outside-2_257_62" maskUnits="userSpaceOnUse" x="88" y="193" width="59" height="14" fill="black">
<rect fill="white" x="88" y="193" width="59" height="14"/>
<path d="M93.824 194.208C96.384 194.208 97.952 195.104 98.544 196.896H98.24C97.68 195.264 96.208 194.448 93.824 194.448C92.992 194.448 92.24 194.576 91.584 194.832C91.312 194.944 91.056 195.072 90.816 195.232C90.56 195.392 90.336 195.568 90.144 195.776C89.952 195.984 89.792 196.224 89.68 196.48C89.568 196.752 89.504 197.04 89.504 197.344C89.504 197.872 89.648 198.304 89.952 198.64C90.144 198.896 90.416 199.104 90.784 199.28C91.152 199.456 91.536 199.616 91.952 199.728C92.352 199.84 92.768 199.936 93.184 200.016C93.584 200.096 93.936 200.16 94.224 200.208C95.328 200.384 96.224 200.592 96.896 200.864C97.456 201.104 97.904 201.376 98.24 201.712C98.576 202.048 98.752 202.528 98.768 203.184C98.784 203.76 98.592 204.272 98.192 204.736C97.952 205.008 97.68 205.248 97.36 205.424C97.024 205.6 96.688 205.744 96.32 205.856C95.952 205.968 95.568 206.064 95.2 206.112C94.816 206.16 94.448 206.176 94.112 206.176C93.568 206.176 93.008 206.128 92.448 206.032C91.888 205.936 91.36 205.776 90.864 205.536C90.368 205.296 89.952 204.976 89.6 204.576C89.232 204.176 88.992 203.68 88.88 203.072H89.216C89.312 203.632 89.536 204.08 89.888 204.448C90.224 204.816 90.64 205.12 91.104 205.328C91.568 205.552 92.064 205.712 92.592 205.792C93.12 205.888 93.632 205.936 94.112 205.936C94.528 205.936 94.992 205.888 95.504 205.808C96.016 205.728 96.496 205.568 96.944 205.36C97.392 205.152 97.776 204.88 98.08 204.512C98.384 204.16 98.528 203.712 98.528 203.184C98.528 202.672 98.368 202.256 98.064 201.92C97.76 201.584 97.376 201.328 96.928 201.12C96.48 200.928 96 200.784 95.504 200.688C95.008 200.592 94.56 200.512 94.176 200.448C92.928 200.272 91.936 200.048 91.216 199.776C90.624 199.552 90.144 199.264 89.776 198.896C89.408 198.528 89.232 198.016 89.232 197.344C89.232 196.784 89.392 196.288 89.696 195.888C90 195.488 90.368 195.168 90.832 194.912C91.28 194.672 91.776 194.48 92.32 194.368C92.848 194.256 93.36 194.208 93.824 194.208ZM106.701 205.28L106.845 205.504C106.637 205.728 106.365 205.888 106.061 206.016C105.757 206.128 105.453 206.176 105.149 206.176C103.741 206.176 103.037 205.376 103.037 203.776V197.264H101.277V197.024H103.037V194.384H103.325V197.024H106.717V197.264H103.325V203.776C103.325 204.096 103.357 204.384 103.421 204.64C103.469 204.912 103.581 205.136 103.725 205.328C103.869 205.52 104.045 205.664 104.285 205.776C104.525 205.888 104.813 205.936 105.149 205.936C105.773 205.936 106.301 205.712 106.701 205.28ZM118.181 202.08V197.024H118.469L118.533 206.032H118.261L118.181 203.36C118.037 203.776 117.845 204.16 117.605 204.496C117.349 204.848 117.045 205.152 116.709 205.392C116.373 205.648 115.989 205.84 115.573 205.984C115.141 206.128 114.677 206.192 114.181 206.192C113.525 206.192 112.933 206.08 112.405 205.84C111.877 205.6 111.413 205.28 111.045 204.864C110.661 204.464 110.373 203.984 110.165 203.424C109.957 202.864 109.861 202.272 109.861 201.648V197.024H110.133V201.648C110.133 202.24 110.229 202.8 110.421 203.328C110.613 203.856 110.885 204.304 111.237 204.688C111.589 205.072 112.021 205.376 112.517 205.6C113.013 205.824 113.573 205.936 114.181 205.936C114.757 205.936 115.285 205.84 115.765 205.632C116.229 205.44 116.645 205.168 116.981 204.816C117.317 204.48 117.605 204.064 117.813 203.6C118.021 203.136 118.133 202.624 118.181 202.08ZM125.844 205.888C126.42 205.888 126.948 205.792 127.428 205.6C127.892 205.408 128.308 205.136 128.644 204.784C128.98 204.448 129.268 204.032 129.476 203.568C129.684 203.104 129.796 202.608 129.844 202.064V201.2C129.796 200.656 129.684 200.144 129.476 199.664C129.268 199.2 128.98 198.784 128.644 198.448C128.308 198.112 127.892 197.84 127.428 197.632C126.948 197.44 126.42 197.344 125.844 197.344C125.236 197.344 124.676 197.456 124.18 197.68C123.684 197.904 123.252 198.208 122.9 198.592C122.548 198.976 122.276 199.424 122.084 199.936C121.892 200.464 121.796 201.024 121.796 201.616C121.796 202.208 121.892 202.768 122.084 203.296C122.276 203.824 122.548 204.272 122.9 204.656C123.252 205.04 123.684 205.344 124.18 205.552C124.676 205.776 125.22 205.888 125.844 205.888ZM125.844 197.072C126.34 197.072 126.804 197.136 127.236 197.28C127.652 197.424 128.036 197.616 128.372 197.856C128.708 198.112 129.012 198.416 129.268 198.752C129.508 199.104 129.7 199.488 129.844 199.904V194.384H130.132V206H129.844V203.344C129.7 203.76 129.508 204.144 129.268 204.48C129.012 204.816 128.708 205.12 128.372 205.36C128.036 205.616 127.652 205.808 127.236 205.952C126.804 206.096 126.34 206.16 125.844 206.16C125.188 206.16 124.596 206.048 124.068 205.808C123.54 205.568 123.076 205.248 122.708 204.832C122.324 204.432 122.036 203.952 121.828 203.392C121.62 202.832 121.524 202.24 121.524 201.616C121.524 200.992 121.62 200.4 121.828 199.84C122.036 199.296 122.324 198.816 122.708 198.4C123.076 198 123.54 197.664 124.068 197.424C124.596 197.184 125.188 197.072 125.844 197.072ZM133.883 195.152C133.771 195.152 133.675 195.12 133.611 195.04C133.531 194.976 133.499 194.88 133.499 194.768C133.499 194.512 133.627 194.384 133.883 194.384C133.995 194.384 134.091 194.416 134.171 194.48C134.235 194.56 134.267 194.656 134.267 194.768C134.267 195.024 134.139 195.152 133.883 195.152ZM133.739 197.024H134.027V206H133.739V197.024ZM137.099 201.616C137.099 200.992 137.195 200.4 137.403 199.84C137.611 199.296 137.899 198.816 138.267 198.4C138.635 198 139.099 197.664 139.627 197.424C140.155 197.184 140.731 197.072 141.387 197.072C142.043 197.072 142.651 197.184 143.179 197.424C143.707 197.664 144.155 198 144.539 198.4C144.907 198.816 145.195 199.296 145.403 199.84C145.611 200.4 145.707 200.992 145.707 201.616C145.707 202.24 145.611 202.832 145.403 203.392C145.195 203.952 144.907 204.432 144.539 204.832C144.155 205.248 143.707 205.568 143.179 205.808C142.651 206.048 142.043 206.16 141.387 206.16C140.731 206.16 140.155 206.048 139.627 205.808C139.099 205.568 138.635 205.248 138.267 204.832C137.899 204.432 137.611 203.952 137.403 203.392C137.195 202.832 137.099 202.24 137.099 201.616ZM145.435 201.616C145.435 201.024 145.339 200.464 145.147 199.936C144.955 199.424 144.683 198.976 144.331 198.592C143.979 198.208 143.563 197.904 143.067 197.68C142.571 197.456 142.011 197.344 141.387 197.344C140.779 197.344 140.235 197.456 139.739 197.68C139.243 197.904 138.811 198.208 138.475 198.592C138.123 198.976 137.851 199.424 137.659 199.936C137.467 200.464 137.371 201.024 137.371 201.616C137.371 202.208 137.467 202.768 137.659 203.296C137.835 203.824 138.107 204.272 138.459 204.656C138.795 205.04 139.227 205.344 139.723 205.552C140.219 205.776 140.763 205.888 141.387 205.888C142.011 205.888 142.587 205.776 143.083 205.552C143.579 205.344 143.995 205.04 144.347 204.656C144.699 204.272 144.971 203.824 145.163 203.296C145.339 202.768 145.435 202.208 145.435 201.616Z"/>
</mask>
<path d="M93.824 194.208C96.384 194.208 97.952 195.104 98.544 196.896H98.24C97.68 195.264 96.208 194.448 93.824 194.448C92.992 194.448 92.24 194.576 91.584 194.832C91.312 194.944 91.056 195.072 90.816 195.232C90.56 195.392 90.336 195.568 90.144 195.776C89.952 195.984 89.792 196.224 89.68 196.48C89.568 196.752 89.504 197.04 89.504 197.344C89.504 197.872 89.648 198.304 89.952 198.64C90.144 198.896 90.416 199.104 90.784 199.28C91.152 199.456 91.536 199.616 91.952 199.728C92.352 199.84 92.768 199.936 93.184 200.016C93.584 200.096 93.936 200.16 94.224 200.208C95.328 200.384 96.224 200.592 96.896 200.864C97.456 201.104 97.904 201.376 98.24 201.712C98.576 202.048 98.752 202.528 98.768 203.184C98.784 203.76 98.592 204.272 98.192 204.736C97.952 205.008 97.68 205.248 97.36 205.424C97.024 205.6 96.688 205.744 96.32 205.856C95.952 205.968 95.568 206.064 95.2 206.112C94.816 206.16 94.448 206.176 94.112 206.176C93.568 206.176 93.008 206.128 92.448 206.032C91.888 205.936 91.36 205.776 90.864 205.536C90.368 205.296 89.952 204.976 89.6 204.576C89.232 204.176 88.992 203.68 88.88 203.072H89.216C89.312 203.632 89.536 204.08 89.888 204.448C90.224 204.816 90.64 205.12 91.104 205.328C91.568 205.552 92.064 205.712 92.592 205.792C93.12 205.888 93.632 205.936 94.112 205.936C94.528 205.936 94.992 205.888 95.504 205.808C96.016 205.728 96.496 205.568 96.944 205.36C97.392 205.152 97.776 204.88 98.08 204.512C98.384 204.16 98.528 203.712 98.528 203.184C98.528 202.672 98.368 202.256 98.064 201.92C97.76 201.584 97.376 201.328 96.928 201.12C96.48 200.928 96 200.784 95.504 200.688C95.008 200.592 94.56 200.512 94.176 200.448C92.928 200.272 91.936 200.048 91.216 199.776C90.624 199.552 90.144 199.264 89.776 198.896C89.408 198.528 89.232 198.016 89.232 197.344C89.232 196.784 89.392 196.288 89.696 195.888C90 195.488 90.368 195.168 90.832 194.912C91.28 194.672 91.776 194.48 92.32 194.368C92.848 194.256 93.36 194.208 93.824 194.208ZM106.701 205.28L106.845 205.504C106.637 205.728 106.365 205.888 106.061 206.016C105.757 206.128 105.453 206.176 105.149 206.176C103.741 206.176 103.037 205.376 103.037 203.776V197.264H101.277V197.024H103.037V194.384H103.325V197.024H106.717V197.264H103.325V203.776C103.325 204.096 103.357 204.384 103.421 204.64C103.469 204.912 103.581 205.136 103.725 205.328C103.869 205.52 104.045 205.664 104.285 205.776C104.525 205.888 104.813 205.936 105.149 205.936C105.773 205.936 106.301 205.712 106.701 205.28ZM118.181 202.08V197.024H118.469L118.533 206.032H118.261L118.181 203.36C118.037 203.776 117.845 204.16 117.605 204.496C117.349 204.848 117.045 205.152 116.709 205.392C116.373 205.648 115.989 205.84 115.573 205.984C115.141 206.128 114.677 206.192 114.181 206.192C113.525 206.192 112.933 206.08 112.405 205.84C111.877 205.6 111.413 205.28 111.045 204.864C110.661 204.464 110.373 203.984 110.165 203.424C109.957 202.864 109.861 202.272 109.861 201.648V197.024H110.133V201.648C110.133 202.24 110.229 202.8 110.421 203.328C110.613 203.856 110.885 204.304 111.237 204.688C111.589 205.072 112.021 205.376 112.517 205.6C113.013 205.824 113.573 205.936 114.181 205.936C114.757 205.936 115.285 205.84 115.765 205.632C116.229 205.44 116.645 205.168 116.981 204.816C117.317 204.48 117.605 204.064 117.813 203.6C118.021 203.136 118.133 202.624 118.181 202.08ZM125.844 205.888C126.42 205.888 126.948 205.792 127.428 205.6C127.892 205.408 128.308 205.136 128.644 204.784C128.98 204.448 129.268 204.032 129.476 203.568C129.684 203.104 129.796 202.608 129.844 202.064V201.2C129.796 200.656 129.684 200.144 129.476 199.664C129.268 199.2 128.98 198.784 128.644 198.448C128.308 198.112 127.892 197.84 127.428 197.632C126.948 197.44 126.42 197.344 125.844 197.344C125.236 197.344 124.676 197.456 124.18 197.68C123.684 197.904 123.252 198.208 122.9 198.592C122.548 198.976 122.276 199.424 122.084 199.936C121.892 200.464 121.796 201.024 121.796 201.616C121.796 202.208 121.892 202.768 122.084 203.296C122.276 203.824 122.548 204.272 122.9 204.656C123.252 205.04 123.684 205.344 124.18 205.552C124.676 205.776 125.22 205.888 125.844 205.888ZM125.844 197.072C126.34 197.072 126.804 197.136 127.236 197.28C127.652 197.424 128.036 197.616 128.372 197.856C128.708 198.112 129.012 198.416 129.268 198.752C129.508 199.104 129.7 199.488 129.844 199.904V194.384H130.132V206H129.844V203.344C129.7 203.76 129.508 204.144 129.268 204.48C129.012 204.816 128.708 205.12 128.372 205.36C128.036 205.616 127.652 205.808 127.236 205.952C126.804 206.096 126.34 206.16 125.844 206.16C125.188 206.16 124.596 206.048 124.068 205.808C123.54 205.568 123.076 205.248 122.708 204.832C122.324 204.432 122.036 203.952 121.828 203.392C121.62 202.832 121.524 202.24 121.524 201.616C121.524 200.992 121.62 200.4 121.828 199.84C122.036 199.296 122.324 198.816 122.708 198.4C123.076 198 123.54 197.664 124.068 197.424C124.596 197.184 125.188 197.072 125.844 197.072ZM133.883 195.152C133.771 195.152 133.675 195.12 133.611 195.04C133.531 194.976 133.499 194.88 133.499 194.768C133.499 194.512 133.627 194.384 133.883 194.384C133.995 194.384 134.091 194.416 134.171 194.48C134.235 194.56 134.267 194.656 134.267 194.768C134.267 195.024 134.139 195.152 133.883 195.152ZM133.739 197.024H134.027V206H133.739V197.024ZM137.099 201.616C137.099 200.992 137.195 200.4 137.403 199.84C137.611 199.296 137.899 198.816 138.267 198.4C138.635 198 139.099 197.664 139.627 197.424C140.155 197.184 140.731 197.072 141.387 197.072C142.043 197.072 142.651 197.184 143.179 197.424C143.707 197.664 144.155 198 144.539 198.4C144.907 198.816 145.195 199.296 145.403 199.84C145.611 200.4 145.707 200.992 145.707 201.616C145.707 202.24 145.611 202.832 145.403 203.392C145.195 203.952 144.907 204.432 144.539 204.832C144.155 205.248 143.707 205.568 143.179 205.808C142.651 206.048 142.043 206.16 141.387 206.16C140.731 206.16 140.155 206.048 139.627 205.808C139.099 205.568 138.635 205.248 138.267 204.832C137.899 204.432 137.611 203.952 137.403 203.392C137.195 202.832 137.099 202.24 137.099 201.616ZM145.435 201.616C145.435 201.024 145.339 200.464 145.147 199.936C144.955 199.424 144.683 198.976 144.331 198.592C143.979 198.208 143.563 197.904 143.067 197.68C142.571 197.456 142.011 197.344 141.387 197.344C140.779 197.344 140.235 197.456 139.739 197.68C139.243 197.904 138.811 198.208 138.475 198.592C138.123 198.976 137.851 199.424 137.659 199.936C137.467 200.464 137.371 201.024 137.371 201.616C137.371 202.208 137.467 202.768 137.659 203.296C137.835 203.824 138.107 204.272 138.459 204.656C138.795 205.04 139.227 205.344 139.723 205.552C140.219 205.776 140.763 205.888 141.387 205.888C142.011 205.888 142.587 205.776 143.083 205.552C143.579 205.344 143.995 205.04 144.347 204.656C144.699 204.272 144.971 203.824 145.163 203.296C145.339 202.768 145.435 202.208 145.435 201.616Z" fill="black"/>
<path d="M98.544 196.896V197.496H99.3741L99.1137 196.708L98.544 196.896ZM98.24 196.896L97.6725 197.091L97.8115 197.496H98.24V196.896ZM91.584 194.832L91.3658 194.273L91.3556 194.277L91.584 194.832ZM90.816 195.232L91.134 195.741L91.1415 195.736L91.1488 195.731L90.816 195.232ZM90.144 195.776L89.7031 195.369L89.7031 195.369L90.144 195.776ZM89.68 196.48L89.1302 196.239L89.1252 196.252L89.68 196.48ZM89.952 198.64L90.432 198.28L90.4154 198.258L90.3969 198.237L89.952 198.64ZM91.952 199.728L92.1138 199.15L92.108 199.149L91.952 199.728ZM93.184 200.016L93.3017 199.428L93.2973 199.427L93.184 200.016ZM94.224 200.208L94.1254 200.8L94.1295 200.801L94.224 200.208ZM96.896 200.864L97.1324 200.312L97.1211 200.308L96.896 200.864ZM98.24 201.712L98.6643 201.288L98.6643 201.288L98.24 201.712ZM98.768 203.184L98.1682 203.199L98.1682 203.201L98.768 203.184ZM98.192 204.736L98.6419 205.133L98.6464 205.128L98.192 204.736ZM97.36 205.424L97.6385 205.956L97.6492 205.95L97.36 205.424ZM96.32 205.856L96.4947 206.43L96.4947 206.43L96.32 205.856ZM95.2 206.112L95.2744 206.707L95.2776 206.707L95.2 206.112ZM92.448 206.032L92.5494 205.441L92.5494 205.441L92.448 206.032ZM90.864 205.536L90.6027 206.076L90.6027 206.076L90.864 205.536ZM89.6 204.576L90.0505 204.18L90.0416 204.17L89.6 204.576ZM88.88 203.072V202.472H88.1594L88.2899 203.181L88.88 203.072ZM89.216 203.072L89.8074 202.971L89.7219 202.472H89.216V203.072ZM89.888 204.448L90.3312 204.043L90.3216 204.033L89.888 204.448ZM91.104 205.328L91.3648 204.788L91.3572 204.784L91.3494 204.78L91.104 205.328ZM92.592 205.792L92.6993 205.202L92.6906 205.2L92.6819 205.199L92.592 205.792ZM95.504 205.808L95.4114 205.215L95.4114 205.215L95.504 205.808ZM96.944 205.36L96.6913 204.816L96.6913 204.816L96.944 205.36ZM98.08 204.512L97.6258 204.12L97.6174 204.13L98.08 204.512ZM98.064 201.92L98.5089 201.517L98.5089 201.517L98.064 201.92ZM96.928 201.12L97.1807 200.576L97.1726 200.572L97.1644 200.569L96.928 201.12ZM94.176 200.448L94.2746 199.856L94.2672 199.855L94.2598 199.854L94.176 200.448ZM91.216 199.776L91.0037 200.337L91.004 200.337L91.216 199.776ZM89.776 198.896L90.2003 198.472L90.2003 198.472L89.776 198.896ZM89.696 195.888L90.1737 196.251L90.1737 196.251L89.696 195.888ZM90.832 194.912L90.5486 194.383L90.5422 194.387L90.832 194.912ZM92.32 194.368L92.441 194.956L92.4445 194.955L92.32 194.368ZM93.824 194.808C95.0406 194.808 95.9592 195.022 96.6249 195.401C97.2757 195.772 97.7225 196.322 97.9743 197.084L99.1137 196.708C98.7735 195.678 98.1403 194.884 97.2191 194.359C96.3128 193.842 95.1674 193.608 93.824 193.608V194.808ZM98.544 196.296H98.24V197.496H98.544V196.296ZM98.8075 196.701C98.4807 195.749 97.8763 195.017 97.0069 194.535C96.1525 194.062 95.0778 193.848 93.824 193.848V195.048C94.9542 195.048 95.8075 195.242 96.4251 195.585C97.0277 195.919 97.4393 196.411 97.6725 197.091L98.8075 196.701ZM93.824 193.848C92.9314 193.848 92.1034 193.985 91.3659 194.273L91.8021 195.391C92.3766 195.167 93.0526 195.048 93.824 195.048V193.848ZM91.3556 194.277C91.0575 194.4 90.7643 194.545 90.4832 194.733L91.1488 195.731C91.3477 195.599 91.5665 195.488 91.8124 195.387L91.3556 194.277ZM90.498 194.723C90.2076 194.905 89.9392 195.113 89.7031 195.369L90.5849 196.183C90.7328 196.023 90.9124 195.879 91.134 195.741L90.498 194.723ZM89.7031 195.369C89.4687 195.623 89.2707 195.919 89.1303 196.24L90.2297 196.72C90.3133 196.529 90.4353 196.345 90.5849 196.183L89.7031 195.369ZM89.1252 196.252C88.9866 196.588 88.904 196.954 88.904 197.344H90.104C90.104 197.126 90.1494 196.916 90.2348 196.708L89.1252 196.252ZM88.904 197.344C88.904 197.987 89.0827 198.573 89.5071 199.043L90.3969 198.237C90.2133 198.035 90.104 197.757 90.104 197.344H88.904ZM89.472 199C89.7367 199.353 90.095 199.616 90.5251 199.821L91.0429 198.739C90.737 198.592 90.5513 198.439 90.432 198.28L89.472 199ZM90.5251 199.821C90.9111 200.006 91.3315 200.182 91.796 200.307L92.108 199.149C91.7405 199.05 91.3929 198.906 91.0429 198.739L90.5251 199.821ZM91.7902 200.306C92.2081 200.423 92.6405 200.522 93.0707 200.605L93.2973 199.427C92.8955 199.35 92.4959 199.257 92.1138 199.15L91.7902 200.306ZM93.0663 200.604C93.4722 200.686 93.8305 200.751 94.1254 200.8L94.3226 199.616C94.0415 199.569 93.6958 199.506 93.3017 199.428L93.0663 200.604ZM94.1295 200.801C95.2196 200.974 96.0624 201.174 96.6709 201.42L97.1211 200.308C96.3856 200.01 95.4364 199.794 94.3185 199.615L94.1295 200.801ZM96.6596 201.415C97.1794 201.638 97.5528 201.873 97.8157 202.136L98.6643 201.288C98.2552 200.879 97.7326 200.57 97.1324 200.313L96.6596 201.415ZM97.8157 202.136C98.0096 202.33 98.1546 202.642 98.1682 203.199L99.3678 203.169C99.3494 202.414 99.1424 201.766 98.6643 201.288L97.8157 202.136ZM98.1682 203.201C98.1797 203.615 98.0481 203.984 97.7376 204.344L98.6464 205.128C99.1359 204.56 99.3883 203.905 99.3678 203.167L98.1682 203.201ZM97.7421 204.339C97.5343 204.575 97.3145 204.764 97.0708 204.898L97.6492 205.95C98.0455 205.732 98.3697 205.441 98.6419 205.133L97.7421 204.339ZM97.0816 204.893C96.7732 205.054 96.472 205.183 96.1453 205.282L96.4947 206.43C96.904 206.305 97.2748 206.146 97.6384 205.955L97.0816 204.893ZM96.1453 205.282C95.7943 205.389 95.4452 205.475 95.1224 205.517L95.2776 206.707C95.6908 206.653 96.1097 206.547 96.4947 206.43L96.1453 205.282ZM95.1256 205.517C94.7717 205.561 94.4293 205.576 94.112 205.576V206.776C94.4667 206.776 94.8603 206.759 95.2744 206.707L95.1256 205.517ZM94.112 205.576C93.603 205.576 93.0769 205.531 92.5494 205.441L92.3466 206.623C92.9391 206.725 93.533 206.776 94.112 206.776V205.576ZM92.5494 205.441C92.0374 205.353 91.5643 205.208 91.1253 204.996L90.6027 206.076C91.1557 206.344 91.7386 206.519 92.3466 206.623L92.5494 205.441ZM91.1253 204.996C90.7022 204.791 90.3502 204.52 90.0504 204.18L89.1496 204.972C89.5538 205.432 90.0338 205.801 90.6027 206.076L91.1253 204.996ZM90.0416 204.17C89.7586 203.862 89.564 203.473 89.4701 202.963L88.2899 203.181C88.42 203.887 88.7054 204.49 89.1584 204.982L90.0416 204.17ZM88.88 203.672H89.216V202.472H88.88V203.672ZM88.6246 203.173C88.7394 203.843 89.0142 204.402 89.4544 204.863L90.3216 204.033C90.0578 203.758 89.8846 203.421 89.8074 202.971L88.6246 203.173ZM89.4449 204.853C89.8355 205.28 90.3185 205.633 90.8586 205.876L91.3494 204.78C90.9615 204.607 90.6125 204.352 90.3311 204.043L89.4449 204.853ZM90.8432 205.868C91.3577 206.117 91.9111 206.296 92.5021 206.385L92.6819 205.199C92.2169 205.128 91.7783 204.987 91.3648 204.788L90.8432 205.868ZM92.4847 206.382C93.0446 206.484 93.5926 206.536 94.112 206.536V205.336C93.6714 205.336 93.1954 205.292 92.6993 205.202L92.4847 206.382ZM94.112 206.536C94.5712 206.536 95.069 206.483 95.5966 206.401L95.4114 205.215C94.915 205.293 94.4848 205.336 94.112 205.336V206.536ZM95.5966 206.401C96.173 206.311 96.7069 206.132 97.1967 205.904L96.6913 204.816C96.2851 205.004 95.859 205.145 95.4114 205.215L95.5966 206.401ZM97.1967 205.904C97.7083 205.667 98.1704 205.345 98.5426 204.894L97.6174 204.13C97.3816 204.415 97.0757 204.637 96.6913 204.816L97.1967 205.904ZM98.5341 204.904C98.9505 204.422 99.128 203.825 99.128 203.184H97.928C97.928 203.599 97.8175 203.898 97.6259 204.12L98.5341 204.904ZM99.128 203.184C99.128 202.534 98.9196 201.971 98.5089 201.517L97.6191 202.323C97.8164 202.541 97.928 202.81 97.928 203.184H99.128ZM98.5089 201.517C98.1368 201.106 97.6796 200.807 97.1807 200.576L96.6753 201.664C97.0724 201.849 97.3832 202.062 97.6191 202.323L98.5089 201.517ZM97.1644 200.569C96.6739 200.358 96.1526 200.202 95.618 200.099L95.39 201.277C95.8474 201.366 96.2861 201.498 96.6916 201.671L97.1644 200.569ZM95.618 200.099C95.117 200.002 94.6639 199.921 94.2746 199.856L94.0774 201.04C94.4561 201.103 94.899 201.182 95.39 201.277L95.618 200.099ZM94.2598 199.854C93.0308 199.681 92.0884 199.464 91.428 199.215L91.004 200.337C91.7836 200.632 92.8252 200.863 94.0922 201.042L94.2598 199.854ZM91.4283 199.215C90.8939 199.013 90.4935 198.765 90.2003 198.472L89.3517 199.32C89.7945 199.763 90.3541 200.091 91.0037 200.337L91.4283 199.215ZM90.2003 198.472C89.9773 198.249 89.832 197.91 89.832 197.344H88.632C88.632 198.122 88.8387 198.807 89.3517 199.32L90.2003 198.472ZM89.832 197.344C89.832 196.902 89.9568 196.536 90.1737 196.251L89.2183 195.525C88.8272 196.04 88.632 196.666 88.632 197.344H89.832ZM90.1737 196.251C90.4264 195.918 90.7302 195.653 91.1218 195.437L90.5422 194.387C90.0058 194.683 89.5736 195.058 89.2183 195.525L90.1737 196.251ZM91.1153 195.441C91.518 195.225 91.9597 195.055 92.441 194.956L92.199 193.78C91.5923 193.905 91.042 194.119 90.5487 194.383L91.1153 195.441ZM92.4445 194.955C92.9302 194.852 93.4005 194.808 93.824 194.808V193.608C93.3195 193.608 92.7658 193.66 92.1955 193.781L92.4445 194.955ZM106.701 205.28L107.206 204.956L106.787 204.304L106.261 204.872L106.701 205.28ZM106.845 205.504L107.285 205.912L107.601 205.571L107.35 205.18L106.845 205.504ZM106.061 206.016L106.268 206.579L106.281 206.574L106.294 206.569L106.061 206.016ZM103.037 197.264H103.637V196.664H103.037V197.264ZM101.277 197.264H100.677V197.864H101.277V197.264ZM101.277 197.024V196.424H100.677V197.024H101.277ZM103.037 197.024V197.624H103.637V197.024H103.037ZM103.037 194.384V193.784H102.437V194.384H103.037ZM103.325 194.384H103.925V193.784H103.325V194.384ZM103.325 197.024H102.725V197.624H103.325V197.024ZM106.717 197.024H107.317V196.424H106.717V197.024ZM106.717 197.264V197.864H107.317V197.264H106.717ZM103.325 197.264V196.664H102.725V197.264H103.325ZM103.421 204.64L104.012 204.536L104.008 204.515L104.003 204.494L103.421 204.64ZM103.725 205.328L103.245 205.688L103.245 205.688L103.725 205.328ZM104.285 205.776L104.031 206.32L104.031 206.32L104.285 205.776ZM106.196 205.604L106.34 205.828L107.35 205.18L107.206 204.956L106.196 205.604ZM106.405 205.096C106.277 205.234 106.09 205.353 105.828 205.463L106.294 206.569C106.64 206.423 106.997 206.222 107.285 205.912L106.405 205.096ZM105.853 205.453C105.621 205.539 105.388 205.576 105.149 205.576V206.776C105.518 206.776 105.893 206.717 106.268 206.579L105.853 205.453ZM105.149 205.576C104.559 205.576 104.22 205.412 104.015 205.18C103.798 204.933 103.637 204.501 103.637 203.776H102.437C102.437 204.651 102.628 205.419 103.114 205.972C103.614 206.54 104.331 206.776 105.149 206.776V205.576ZM103.637 203.776V197.264H102.437V203.776H103.637ZM103.037 196.664H101.277V197.864H103.037V196.664ZM101.877 197.264V197.024H100.677V197.264H101.877ZM101.277 197.624H103.037V196.424H101.277V197.624ZM103.637 197.024V194.384H102.437V197.024H103.637ZM103.037 194.984H103.325V193.784H103.037V194.984ZM102.725 194.384V197.024H103.925V194.384H102.725ZM103.325 197.624H106.717V196.424H103.325V197.624ZM106.117 197.024V197.264H107.317V197.024H106.117ZM106.717 196.664H103.325V197.864H106.717V196.664ZM102.725 197.264V203.776H103.925V197.264H102.725ZM102.725 203.776C102.725 204.135 102.761 204.473 102.839 204.786L104.003 204.494C103.953 204.295 103.925 204.057 103.925 203.776H102.725ZM102.83 204.744C102.897 205.124 103.054 205.434 103.245 205.688L104.205 204.968C104.108 204.838 104.041 204.7 104.012 204.536L102.83 204.744ZM103.245 205.688C103.45 205.962 103.705 206.168 104.031 206.32L104.539 205.232C104.385 205.16 104.287 205.078 104.205 204.968L103.245 205.688ZM104.031 206.32C104.377 206.481 104.761 206.536 105.149 206.536V205.336C104.865 205.336 104.672 205.295 104.539 205.232L104.031 206.32ZM105.149 206.536C105.93 206.536 106.621 206.25 107.141 205.688L106.261 204.872C105.981 205.174 105.616 205.336 105.149 205.336V206.536ZM118.181 202.08L118.779 202.133L118.781 202.106V202.08H118.181ZM118.181 197.024V196.424H117.581V197.024H118.181ZM118.469 197.024L119.069 197.02L119.065 196.424H118.469V197.024ZM118.533 206.032V206.632H119.138L119.133 206.028L118.533 206.032ZM118.261 206.032L117.662 206.05L117.679 206.632H118.261V206.032ZM118.181 203.36L118.781 203.342L117.614 203.164L118.181 203.36ZM117.605 204.496L118.091 204.849L118.093 204.845L117.605 204.496ZM116.709 205.392L116.361 204.904L116.353 204.909L116.346 204.915L116.709 205.392ZM115.573 205.984L115.763 206.553L115.77 206.551L115.573 205.984ZM112.405 205.84L112.654 205.294L112.654 205.294L112.405 205.84ZM111.045 204.864L111.495 204.466L111.487 204.457L111.478 204.448L111.045 204.864ZM110.165 203.424L109.603 203.633L109.603 203.633L110.165 203.424ZM109.861 197.024V196.424H109.261V197.024H109.861ZM110.133 197.024H110.733V196.424H110.133V197.024ZM110.421 203.328L110.985 203.123L110.985 203.123L110.421 203.328ZM111.237 204.688L110.795 205.093L110.795 205.093L111.237 204.688ZM112.517 205.6L112.764 205.053L112.764 205.053L112.517 205.6ZM115.765 205.632L115.536 205.078L115.527 205.081L115.765 205.632ZM116.981 204.816L116.557 204.392L116.547 204.402L116.981 204.816ZM117.813 203.6L118.361 203.845L118.361 203.845L117.813 203.6ZM118.781 202.08V197.024H117.581V202.08H118.781ZM118.181 197.624H118.469V196.424H118.181V197.624ZM117.869 197.028L117.933 206.036L119.133 206.028L119.069 197.02L117.869 197.028ZM118.533 205.432H118.261V206.632H118.533V205.432ZM118.861 206.014L118.781 203.342L117.582 203.378L117.662 206.05L118.861 206.014ZM117.614 203.164C117.487 203.532 117.32 203.864 117.117 204.147L118.093 204.845C118.371 204.456 118.588 204.02 118.748 203.556L117.614 203.164ZM117.12 204.143C116.9 204.446 116.641 204.703 116.361 204.904L117.058 205.88C117.449 205.601 117.799 205.25 118.09 204.849L117.12 204.143ZM116.346 204.915C116.07 205.125 115.746 205.289 115.377 205.417L115.77 206.551C116.233 206.391 116.676 206.171 117.073 205.869L116.346 204.915ZM115.384 205.415C115.024 205.535 114.626 205.592 114.181 205.592V206.792C114.729 206.792 115.259 206.721 115.763 206.553L115.384 205.415ZM114.181 205.592C113.594 205.592 113.089 205.492 112.654 205.294L112.157 206.386C112.777 206.668 113.457 206.792 114.181 206.792V205.592ZM112.654 205.294C112.188 205.082 111.797 204.808 111.495 204.466L110.596 205.262C111.029 205.752 111.567 206.118 112.157 206.386L112.654 205.294ZM111.478 204.448C111.159 204.116 110.911 203.709 110.728 203.215L109.603 203.633C109.835 204.259 110.164 204.812 110.612 205.28L111.478 204.448ZM110.728 203.215C110.547 202.73 110.461 202.209 110.461 201.648H109.261C109.261 202.335 109.367 202.998 109.603 203.633L110.728 203.215ZM110.461 201.648V197.024H109.261V201.648H110.461ZM109.861 197.624H110.133V196.424H109.861V197.624ZM109.533 197.024V201.648H110.733V197.024H109.533ZM109.533 201.648C109.533 202.306 109.64 202.936 109.857 203.533L110.985 203.123C110.818 202.664 110.733 202.174 110.733 201.648H109.533ZM109.857 203.533C110.075 204.132 110.388 204.649 110.795 205.093L111.68 204.283C111.383 203.959 111.151 203.58 110.985 203.123L109.857 203.533ZM110.795 205.093C111.207 205.543 111.707 205.892 112.27 206.147L112.764 205.053C112.335 204.86 111.972 204.601 111.68 204.283L110.795 205.093ZM112.27 206.147C112.854 206.41 113.499 206.536 114.181 206.536V205.336C113.647 205.336 113.173 205.238 112.764 205.053L112.27 206.147ZM114.181 206.536C114.825 206.536 115.436 206.429 116.004 206.183L115.527 205.081C115.134 205.251 114.69 205.336 114.181 205.336V206.536ZM115.995 206.186C116.526 205.966 117.015 205.65 117.415 205.23L116.547 204.402C116.276 204.686 115.932 204.914 115.536 205.078L115.995 206.186ZM117.406 205.24C117.794 204.852 118.124 204.375 118.361 203.845L117.266 203.355C117.087 203.753 116.84 204.108 116.557 204.392L117.406 205.24ZM118.361 203.845C118.603 203.305 118.727 202.724 118.779 202.133L117.584 202.027C117.54 202.524 117.439 202.967 117.266 203.355L118.361 203.845ZM127.428 205.6L127.651 206.157L127.657 206.154L127.428 205.6ZM128.644 204.784L128.219 204.36L128.21 204.37L128.644 204.784ZM129.476 203.568L130.023 203.813L130.023 203.813L129.476 203.568ZM129.844 202.064L130.441 202.117L130.444 202.09V202.064H129.844ZM129.844 201.2H130.444V201.174L130.441 201.147L129.844 201.2ZM129.476 199.664L130.026 199.425L130.023 199.419L129.476 199.664ZM128.644 198.448L128.219 198.872L128.219 198.872L128.644 198.448ZM127.428 197.632L127.673 197.084L127.662 197.079L127.651 197.075L127.428 197.632ZM124.18 197.68L124.427 198.227L124.427 198.227L124.18 197.68ZM122.9 198.592L122.457 198.187L122.457 198.187L122.9 198.592ZM122.084 199.936L121.522 199.725L121.52 199.731L122.084 199.936ZM122.084 203.296L122.648 203.091L122.648 203.091L122.084 203.296ZM122.9 204.656L123.342 204.251L123.342 204.251L122.9 204.656ZM124.18 205.552L124.427 205.005L124.419 205.002L124.412 204.999L124.18 205.552ZM127.236 197.28L127.432 196.713L127.425 196.711L127.236 197.28ZM128.372 197.856L128.735 197.379L128.728 197.373L128.72 197.368L128.372 197.856ZM129.268 198.752L129.763 198.414L129.755 198.401L129.745 198.388L129.268 198.752ZM129.844 199.904L129.277 200.1L130.444 199.904H129.844ZM129.844 194.384V193.784H129.244V194.384H129.844ZM130.132 194.384H130.732V193.784H130.132V194.384ZM130.132 206V206.6H130.732V206H130.132ZM129.844 206H129.244V206.6H129.844V206ZM129.844 203.344H130.444L129.277 203.148L129.844 203.344ZM129.268 204.48L129.745 204.844L129.751 204.836L129.756 204.829L129.268 204.48ZM128.372 205.36L128.023 204.872L128.015 204.877L128.008 204.883L128.372 205.36ZM127.236 205.952L127.425 206.521L127.432 206.519L127.236 205.952ZM124.068 205.808L124.316 205.262L124.316 205.262L124.068 205.808ZM122.708 204.832L123.157 204.434L123.149 204.425L123.141 204.416L122.708 204.832ZM121.828 203.392L121.265 203.601L121.265 203.601L121.828 203.392ZM121.828 199.84L121.267 199.626L121.265 199.631L121.828 199.84ZM122.708 198.4L123.149 198.807L123.149 198.806L122.708 198.4ZM124.068 197.424L124.316 197.97L124.316 197.97L124.068 197.424ZM125.844 206.488C126.487 206.488 127.092 206.38 127.651 206.157L127.205 205.043C126.803 205.204 126.352 205.288 125.844 205.288V206.488ZM127.657 206.154C128.189 205.934 128.677 205.618 129.078 205.198L128.21 204.37C127.938 204.654 127.595 204.882 127.198 205.046L127.657 206.154ZM129.068 205.208C129.457 204.82 129.786 204.343 130.023 203.813L128.928 203.323C128.749 203.721 128.503 204.076 128.219 204.36L129.068 205.208ZM130.023 203.813C130.265 203.275 130.389 202.711 130.441 202.117L129.246 202.011C129.203 202.505 129.103 202.933 128.928 203.323L130.023 203.813ZM130.444 202.064V201.2H129.244V202.064H130.444ZM130.441 201.147C130.389 200.555 130.265 199.977 130.026 199.425L128.925 199.903C129.102 200.311 129.202 200.757 129.246 201.253L130.441 201.147ZM130.023 199.419C129.786 198.889 129.457 198.412 129.068 198.024L128.219 198.872C128.503 199.156 128.749 199.511 128.928 199.909L130.023 199.419ZM129.068 198.024C128.672 197.628 128.192 197.317 127.673 197.084L127.182 198.18C127.592 198.363 127.944 198.596 128.219 198.872L129.068 198.024ZM127.651 197.075C127.092 196.852 126.487 196.744 125.844 196.744V197.944C126.352 197.944 126.803 198.028 127.205 198.189L127.651 197.075ZM125.844 196.744C125.162 196.744 124.516 196.87 123.933 197.133L124.427 198.227C124.835 198.042 125.31 197.944 125.844 197.944V196.744ZM123.933 197.133C123.37 197.388 122.869 197.737 122.457 198.187L123.342 198.997C123.634 198.679 123.998 198.42 124.427 198.227L123.933 197.133ZM122.457 198.187C122.051 198.63 121.74 199.145 121.522 199.725L122.646 200.147C122.812 199.703 123.045 199.322 123.342 198.997L122.457 198.187ZM121.52 199.731C121.303 200.328 121.196 200.958 121.196 201.616H122.396C122.396 201.09 122.481 200.6 122.648 200.141L121.52 199.731ZM121.196 201.616C121.196 202.274 121.303 202.904 121.52 203.501L122.648 203.091C122.481 202.632 122.396 202.142 122.396 201.616H121.196ZM121.52 203.501C121.738 204.1 122.05 204.617 122.457 205.061L123.342 204.251C123.045 203.927 122.814 203.548 122.648 203.091L121.52 203.501ZM122.457 205.061C122.869 205.51 123.373 205.864 123.948 206.105L124.412 204.999C123.995 204.824 123.635 204.57 123.342 204.251L122.457 205.061ZM123.933 206.099C124.515 206.362 125.145 206.488 125.844 206.488V205.288C125.295 205.288 124.836 205.19 124.427 205.005L123.933 206.099ZM125.844 197.672C126.288 197.672 126.686 197.729 127.046 197.849L127.425 196.711C126.921 196.543 126.391 196.472 125.844 196.472V197.672ZM127.039 197.847C127.408 197.975 127.739 198.142 128.023 198.344L128.72 197.368C128.332 197.09 127.895 196.873 127.432 196.713L127.039 197.847ZM128.008 198.333C128.301 198.557 128.567 198.822 128.79 199.116L129.745 198.388C129.456 198.01 129.114 197.667 128.735 197.379L128.008 198.333ZM128.772 199.09C128.981 199.397 129.15 199.733 129.277 200.1L130.411 199.708C130.25 199.243 130.034 198.811 129.763 198.414L128.772 199.09ZM130.444 199.904V194.384H129.244V199.904H130.444ZM129.844 194.984H130.132V193.784H129.844V194.984ZM129.532 194.384V206H130.732V194.384H129.532ZM130.132 205.4H129.844V206.6H130.132V205.4ZM130.444 206V203.344H129.244V206H130.444ZM129.277 203.148C129.149 203.516 128.982 203.848 128.78 204.131L129.756 204.829C130.033 204.44 130.25 204.004 130.411 203.54L129.277 203.148ZM128.79 204.116C128.566 204.41 128.305 204.671 128.023 204.872L128.72 205.848C129.111 205.569 129.457 205.222 129.745 204.844L128.79 204.116ZM128.008 204.883C127.733 205.093 127.408 205.257 127.039 205.385L127.432 206.519C127.895 206.359 128.339 206.139 128.735 205.837L128.008 204.883ZM127.046 205.383C126.686 205.503 126.288 205.56 125.844 205.56V206.76C126.391 206.76 126.921 206.689 127.425 206.521L127.046 205.383ZM125.844 205.56C125.256 205.56 124.752 205.46 124.316 205.262L123.819 206.354C124.44 206.636 125.119 206.76 125.844 206.76V205.56ZM124.316 205.262C123.85 205.05 123.46 204.776 123.157 204.434L122.258 205.23C122.692 205.72 123.229 206.086 123.819 206.354L124.316 205.262ZM123.141 204.416C122.821 204.084 122.574 203.677 122.39 203.183L121.265 203.601C121.498 204.227 121.826 204.78 122.275 205.248L123.141 204.416ZM122.39 203.183C122.21 202.698 122.124 202.177 122.124 201.616H120.924C120.924 202.303 121.03 202.966 121.265 203.601L122.39 203.183ZM122.124 201.616C122.124 201.055 122.21 200.534 122.39 200.049L121.265 199.631C121.03 200.266 120.924 200.929 120.924 201.616H122.124ZM122.388 200.054C122.572 199.575 122.821 199.162 123.149 198.807L122.267 197.993C121.826 198.47 121.5 199.017 121.267 199.626L122.388 200.054ZM123.149 198.806C123.461 198.467 123.859 198.178 124.316 197.97L123.819 196.878C123.221 197.15 122.69 197.533 122.266 197.994L123.149 198.806ZM124.316 197.97C124.752 197.772 125.256 197.672 125.844 197.672V196.472C125.119 196.472 124.44 196.596 123.819 196.878L124.316 197.97ZM133.611 195.04L134.079 194.665L134.038 194.613L133.986 194.571L133.611 195.04ZM134.171 194.48L134.639 194.105L134.598 194.053L134.546 194.011L134.171 194.48ZM133.739 197.024V196.424H133.139V197.024H133.739ZM134.027 197.024H134.627V196.424H134.027V197.024ZM134.027 206V206.6H134.627V206H134.027ZM133.739 206H133.139V206.6H133.739V206ZM133.883 194.552C133.883 194.552 133.889 194.552 133.9 194.554C133.91 194.556 133.927 194.559 133.947 194.567C133.992 194.585 134.041 194.617 134.079 194.665L133.142 195.415C133.358 195.685 133.66 195.752 133.883 195.752V194.552ZM133.986 194.571C134.034 194.61 134.066 194.659 134.083 194.703C134.091 194.724 134.095 194.74 134.097 194.751C134.099 194.762 134.099 194.768 134.099 194.768H132.899C132.899 194.991 132.966 195.292 133.236 195.509L133.986 194.571ZM134.099 194.768C134.099 194.732 134.107 194.816 134.019 194.904C133.931 194.992 133.847 194.984 133.883 194.984V193.784C133.662 193.784 133.387 193.84 133.17 194.056C132.954 194.272 132.899 194.548 132.899 194.768H134.099ZM133.883 194.984C133.881 194.984 133.868 194.984 133.849 194.977C133.829 194.971 133.811 194.96 133.796 194.949L134.546 194.011C134.349 193.854 134.117 193.784 133.883 193.784V194.984ZM133.702 194.855C133.691 194.84 133.68 194.822 133.674 194.802C133.667 194.782 133.667 194.77 133.667 194.768H134.867C134.867 194.533 134.796 194.302 134.639 194.105L133.702 194.855ZM133.667 194.768C133.667 194.804 133.658 194.72 133.746 194.632C133.835 194.544 133.918 194.552 133.883 194.552V195.752C134.103 195.752 134.379 195.696 134.595 195.48C134.811 195.264 134.867 194.988 134.867 194.768H133.667ZM133.739 197.624H134.027V196.424H133.739V197.624ZM133.427 197.024V206H134.627V197.024H133.427ZM134.027 205.4H133.739V206.6H134.027V205.4ZM134.339 206V197.024H133.139V206H134.339ZM137.403 199.84L136.842 199.626L136.84 199.631L137.403 199.84ZM138.267 198.4L137.825 197.994L137.817 198.002L138.267 198.4ZM139.627 197.424L139.875 197.97L139.875 197.97L139.627 197.424ZM143.179 197.424L143.427 196.878L143.427 196.878L143.179 197.424ZM144.539 198.4L144.988 198.002L144.98 197.993L144.972 197.984L144.539 198.4ZM145.403 199.84L145.965 199.631L145.963 199.626L145.403 199.84ZM145.403 203.392L144.84 203.183L144.84 203.183L145.403 203.392ZM144.539 204.832L144.98 205.239L144.98 205.238L144.539 204.832ZM143.179 205.808L143.427 206.354L143.427 206.354L143.179 205.808ZM139.627 205.808L139.875 205.262L139.875 205.262L139.627 205.808ZM138.267 204.832L138.716 204.434L138.708 204.426L138.267 204.832ZM137.403 203.392L136.84 203.601L136.84 203.601L137.403 203.392ZM145.147 199.936L145.711 199.731L145.709 199.725L145.147 199.936ZM144.331 198.592L144.773 198.187L144.773 198.187L144.331 198.592ZM143.067 197.68L143.314 197.133L143.314 197.133L143.067 197.68ZM138.475 198.592L138.917 198.998L138.926 198.987L138.475 198.592ZM137.659 199.936L137.097 199.725L137.095 199.731L137.659 199.936ZM137.659 203.296L138.228 203.106L138.225 203.099L138.223 203.091L137.659 203.296ZM138.459 204.656L138.91 204.261L138.901 204.251L138.459 204.656ZM139.723 205.552L139.97 205.005L139.962 205.002L139.955 204.999L139.723 205.552ZM143.083 205.552L142.851 204.999L142.843 205.002L142.836 205.005L143.083 205.552ZM144.347 204.656L143.904 204.251L143.904 204.251L144.347 204.656ZM145.163 203.296L145.727 203.501L145.729 203.493L145.732 203.486L145.163 203.296ZM137.699 201.616C137.699 201.055 137.785 200.534 137.965 200.049L136.84 199.631C136.605 200.266 136.499 200.929 136.499 201.616H137.699ZM137.963 200.054C138.147 199.574 138.398 199.157 138.716 198.798L137.817 198.002C137.399 198.475 137.075 199.018 136.842 199.626L137.963 200.054ZM138.708 198.806C139.02 198.467 139.418 198.178 139.875 197.97L139.378 196.878C138.78 197.15 138.249 197.533 137.825 197.994L138.708 198.806ZM139.875 197.97C140.313 197.771 140.802 197.672 141.387 197.672V196.472C140.66 196.472 139.997 196.597 139.378 196.878L139.875 197.97ZM141.387 197.672C141.976 197.672 142.496 197.773 142.93 197.97L143.427 196.878C142.805 196.595 142.109 196.472 141.387 196.472V197.672ZM142.93 197.97C143.381 198.175 143.768 198.463 144.106 198.816L144.972 197.984C144.542 197.537 144.033 197.153 143.427 196.878L142.93 197.97ZM144.089 198.798C144.407 199.157 144.659 199.574 144.842 200.054L145.963 199.626C145.731 199.018 145.406 198.475 144.988 198.002L144.089 198.798ZM144.84 200.049C145.021 200.534 145.107 201.055 145.107 201.616H146.307C146.307 200.929 146.201 200.266 145.965 199.631L144.84 200.049ZM145.107 201.616C145.107 202.177 145.021 202.698 144.84 203.183L145.965 203.601C146.201 202.966 146.307 202.303 146.307 201.616H145.107ZM144.84 203.183C144.657 203.677 144.407 204.089 144.097 204.426L144.98 205.238C145.406 204.775 145.733 204.227 145.965 203.601L144.84 203.183ZM144.098 204.425C143.77 204.78 143.389 205.053 142.93 205.262L143.427 206.354C144.025 206.083 144.539 205.716 144.98 205.239L144.098 204.425ZM142.93 205.262C142.496 205.459 141.976 205.56 141.387 205.56V206.76C142.109 206.76 142.805 206.637 143.427 206.354L142.93 205.262ZM141.387 205.56C140.802 205.56 140.313 205.461 139.875 205.262L139.378 206.354C139.997 206.635 140.66 206.76 141.387 206.76V205.56ZM139.875 205.262C139.409 205.05 139.019 204.776 138.716 204.434L137.817 205.23C138.251 205.72 138.788 206.086 139.378 206.354L139.875 205.262ZM138.708 204.426C138.398 204.089 138.149 203.677 137.965 203.183L136.84 203.601C137.073 204.227 137.399 204.775 137.825 205.238L138.708 204.426ZM137.965 203.183C137.785 202.698 137.699 202.177 137.699 201.616H136.499C136.499 202.303 136.605 202.966 136.84 203.601L137.965 203.183ZM146.035 201.616C146.035 200.958 145.928 200.328 145.711 199.731L144.583 200.141C144.75 200.6 144.835 201.09 144.835 201.616H146.035ZM145.709 199.725C145.491 199.145 145.18 198.63 144.773 198.187L143.888 198.997C144.186 199.322 144.419 199.703 144.585 200.147L145.709 199.725ZM144.773 198.187C144.366 197.743 143.884 197.391 143.314 197.133L142.82 198.227C143.242 198.417 143.591 198.673 143.888 198.997L144.773 198.187ZM143.314 197.133C142.73 196.869 142.083 196.744 141.387 196.744V197.944C141.938 197.944 142.412 198.043 142.82 198.227L143.314 197.133ZM141.387 196.744C140.702 196.744 140.073 196.871 139.492 197.133L139.986 198.227C140.396 198.041 140.855 197.944 141.387 197.944V196.744ZM139.492 197.133C138.93 197.387 138.424 197.739 138.023 198.197L138.926 198.987C139.197 198.677 139.556 198.421 139.986 198.227L139.492 197.133ZM138.032 198.187C137.626 198.63 137.315 199.145 137.097 199.725L138.221 200.147C138.387 199.703 138.62 199.322 138.917 198.997L138.032 198.187ZM137.095 199.731C136.878 200.328 136.771 200.958 136.771 201.616H137.971C137.971 201.09 138.056 200.6 138.223 200.141L137.095 199.731ZM136.771 201.616C136.771 202.274 136.878 202.904 137.095 203.501L138.223 203.091C138.056 202.632 137.971 202.142 137.971 201.616H136.771ZM137.09 203.486C137.293 204.096 137.609 204.617 138.016 205.061L138.901 204.251C138.604 203.927 138.376 203.552 138.228 203.106L137.09 203.486ZM138.007 205.051C138.408 205.509 138.917 205.865 139.491 206.105L139.955 204.999C139.536 204.823 139.181 204.571 138.91 204.261L138.007 205.051ZM139.476 206.099C140.058 206.362 140.688 206.488 141.387 206.488V205.288C140.838 205.288 140.379 205.19 139.97 205.005L139.476 206.099ZM141.387 206.488C142.081 206.488 142.744 206.363 143.33 206.099L142.836 205.005C142.43 205.189 141.94 205.288 141.387 205.288V206.488ZM143.315 206.105C143.896 205.862 144.383 205.505 144.789 205.061L143.904 204.251C143.607 204.575 143.261 204.826 142.851 204.999L143.315 206.105ZM144.789 205.061C145.196 204.617 145.509 204.1 145.727 203.501L144.599 203.091C144.433 203.548 144.201 203.927 143.904 204.251L144.789 205.061ZM145.732 203.486C145.928 202.898 146.035 202.274 146.035 201.616H144.835C144.835 202.142 144.75 202.638 144.594 203.106L145.732 203.486Z" fill="black" mask="url(#path-15-outside-2_257_62)"/>
</svg>
